<svg width="150" height="61" viewBox="0 0 150 61" fill="none" xmlns="http://www.w3.org/2000/svg">
<g clip-path="url(#clip0_48_124)">
<g clip-path="url(#clip1_48_124)">
<g clip-path="url(#clip2_48_124)">
<path d="M59.1313 1.44322C59.1313 0.615882 58.8026 -0.0548096 58.3971 -0.0548096C57.9916 -0.0548096 57.6628 0.615882 57.6628 1.44322V59.1568C57.6628 59.9841 57.9916 60.6548 58.3971 60.6548C58.8026 60.6548 59.1313 59.9841 59.1313 59.1568V1.44322Z" fill="#F5BA41"/>
<g clip-path="url(#clip3_48_124)">
<g clip-path="url(#clip4_48_124)">
<g clip-path="url(#clip5_48_124)">
<g clip-path="url(#clip6_48_124)">
<path d="M69.4088 13.2485C68.2015 13.2485 67.147 12.9839 66.2456 12.4551C65.3419 11.9263 64.6347 11.1926 64.1242 10.2544C63.6113 9.31856 63.355 8.23543 63.355 7.00502C63.355 5.7746 63.6113 4.69044 64.1242 3.75219C64.6347 2.81635 65.3419 2.08369 66.2456 1.55489C67.147 1.02609 68.2015 0.761514 69.4088 0.761514C70.6047 0.761514 71.6568 1.02609 72.565 1.55489C73.4733 2.08369 74.1804 2.81635 74.6864 3.75219C75.1925 4.69044 75.4453 5.7746 75.4453 7.00502C75.4453 8.23543 75.1925 9.31856 74.6864 10.2544C74.1804 11.1926 73.4733 11.9263 72.565 12.4551C71.6568 12.9839 70.6047 13.2485 69.4088 13.2485ZM69.4088 11.2651C70.5585 11.2651 71.476 10.8856 72.1614 10.1268C72.8444 9.36789 73.1859 8.32719 73.1859 7.00502C73.1859 5.68284 72.8444 4.64214 72.1614 3.88326C71.476 3.12439 70.5585 2.74495 69.4088 2.74495C68.2591 2.74495 67.3391 3.12439 66.6492 3.88326C65.9593 4.64214 65.6144 5.68284 65.6144 7.00502C65.6144 8.32719 65.9593 9.36789 66.6492 10.1268C67.3391 10.8856 68.2591 11.2651 69.4088 11.2651ZM79.5501 16.8359H77.3425V4.48692H79.3087L79.5501 5.71147C79.8261 5.33203 80.1917 4.99847 80.6471 4.71113C81.1 4.42379 81.6888 4.27995 82.4132 4.27995C83.2179 4.27995 83.9368 4.47553 84.5691 4.86636C85.2014 5.25718 85.7015 5.79185 86.0696 6.47035C86.4377 7.14886 86.6215 7.91912 86.6215 8.78148C86.6215 9.64384 86.4377 10.4107 86.0696 11.0823C85.7015 11.7559 85.2014 12.2861 84.5691 12.6725C83.9368 13.0564 83.2179 13.2485 82.4132 13.2485C81.7692 13.2485 81.2059 13.1278 80.723 12.8863C80.24 12.6449 79.8492 12.3058 79.5501 11.8687V16.8359ZM81.9475 11.3168C82.6488 11.3168 83.2297 11.0812 83.6895 10.6097C84.1493 10.1382 84.3794 9.52898 84.3794 8.78148C84.3794 8.03399 84.1493 7.41895 83.6895 6.93603C83.2297 6.4531 82.6488 6.21164 81.9475 6.21164C81.2345 6.21164 80.6516 6.44966 80.1986 6.92568C79.7433 7.40412 79.5157 8.01674 79.5157 8.76424C79.5157 9.51173 79.7433 10.1233 80.1986 10.5993C80.6516 11.0778 81.2345 11.3168 81.9475 11.3168ZM93.5549 13.0416H92.0544C91.1575 13.0416 90.439 12.8232 89.8985 12.3862C89.358 11.9491 89.0879 11.173 89.0879 10.0578V6.33237H87.6219V4.48692H89.0879L89.3466 2.19303H91.2955V4.48692H93.6067V6.33237H91.2955V10.075C91.2955 10.489 91.3852 10.7728 91.5646 10.927C91.7415 11.0833 92.0485 11.1616 92.4856 11.1616H93.5549V13.0416ZM96.6939 3.15888C96.2914 3.15888 95.9616 3.03815 95.7039 2.79669C95.4442 2.55523 95.3141 2.25064 95.3141 1.88258C95.3141 1.51453 95.4442 1.21236 95.7039 0.975379C95.9616 0.740817 96.2914 0.623535 96.6939 0.623535C97.0965 0.623535 97.4276 0.740817 97.6874 0.975379C97.945 1.21236 98.0737 1.51453 98.0737 1.88258C98.0737 2.25064 97.945 2.55523 97.6874 2.79669C97.4276 3.03815 97.0965 3.15888 96.6939 3.15888ZM97.7977 13.0416H95.5901V4.48692H97.7977V13.0416ZM102.317 13.0416H100.109V4.48692H102.058L102.248 5.64248C102.523 5.22855 102.889 4.8974 103.344 4.64904C103.797 4.4031 104.323 4.27995 104.921 4.27995C106.243 4.27995 107.18 4.7915 107.732 5.81496C108.043 5.34342 108.46 4.96984 108.984 4.69388C109.506 4.41793 110.078 4.27995 110.699 4.27995C111.814 4.27995 112.671 4.61351 113.269 5.28029C113.866 5.94707 114.165 6.92464 114.165 8.21232V13.0416H111.958V8.41929C111.958 7.68352 111.817 7.11988 111.537 6.72906C111.254 6.33824 110.819 6.14265 110.233 6.14265C109.635 6.14265 109.156 6.361 108.795 6.79805C108.431 7.23509 108.25 7.84427 108.25 8.62626V13.0416H106.042V8.41929C106.042 7.68352 105.898 7.11988 105.611 6.72906C105.323 6.33824 104.88 6.14265 104.283 6.14265C103.696 6.14265 103.223 6.361 102.862 6.79805C102.498 7.23509 102.317 7.84427 102.317 8.62626V13.0416ZM117.46 3.15888C117.057 3.15888 116.726 3.03815 116.466 2.79669C116.208 2.55523 116.08 2.25064 116.08 1.88258C116.08 1.51453 116.208 1.21236 116.466 0.975379C116.726 0.740817 117.057 0.623535 117.46 0.623535C117.862 0.623535 118.192 0.740817 118.45 0.975379C118.709 1.21236 118.839 1.51453 118.839 1.88258C118.839 2.25064 118.709 2.55523 118.45 2.79669C118.192 3.03815 117.862 3.15888 117.46 3.15888ZM118.563 13.0416H116.356V4.48692H118.563V13.0416ZM124.41 13.2485C123.651 13.2485 122.985 13.1243 122.41 12.876C121.835 12.63 121.375 12.2885 121.03 11.8515C120.685 11.4144 120.478 10.9088 120.409 10.3337H122.634C122.703 10.6673 122.889 10.9512 123.193 11.1857C123.499 11.4227 123.893 11.541 124.376 11.541C124.859 11.541 125.212 11.4434 125.435 11.2478C125.66 11.0523 125.773 10.828 125.773 10.5752C125.773 10.2071 125.612 9.95671 125.29 9.82322C124.968 9.69214 124.52 9.56347 123.945 9.43688C123.577 9.35651 123.203 9.25854 122.823 9.14368C122.444 9.02881 122.097 8.88152 121.782 8.70215C121.464 8.52519 121.208 8.29511 121.013 8.01226C120.817 7.73182 120.719 7.38446 120.719 6.97052C120.719 6.21164 121.022 5.57349 121.627 5.05608C122.229 4.53866 123.076 4.27995 124.169 4.27995C125.181 4.27995 125.988 4.51555 126.59 4.98709C127.195 5.45863 127.555 6.10816 127.67 6.93603H125.583C125.456 6.30374 124.979 5.98743 124.152 5.98743C123.738 5.98743 123.418 6.0678 123.193 6.22889C122.969 6.38998 122.858 6.59108 122.858 6.83254C122.858 7.08539 123.025 7.28684 123.358 7.4362C123.692 7.58556 124.134 7.72354 124.686 7.85013C125.284 7.98811 125.832 8.13989 126.332 8.30546C126.833 8.47345 127.233 8.72043 127.532 9.04709C127.831 9.37582 127.98 9.84495 127.98 10.4545C127.992 10.9833 127.854 11.4607 127.566 11.886C127.279 12.3113 126.865 12.6449 126.325 12.8863C125.784 13.1278 125.146 13.2485 124.41 13.2485ZM134.966 13.0416H133.465C132.568 13.0416 131.85 12.8232 131.309 12.3862C130.769 11.9491 130.499 11.173 130.499 10.0578V6.33237H129.032V4.48692H130.499L130.757 2.19303H132.706V4.48692H135.017V6.33237H132.706V10.075C132.706 10.489 132.795 10.7728 132.972 10.927C133.151 11.0833 133.459 11.1616 133.896 11.1616H134.966V13.0416ZM138.105 3.15888C137.702 3.15888 137.371 3.03815 137.111 2.79669C136.853 2.55523 136.725 2.25064 136.725 1.88258C136.725 1.51453 136.853 1.21236 137.111 0.975379C137.371 0.740817 137.702 0.623535 138.105 0.623535C138.507 0.623535 138.837 0.740817 139.095 0.975379C139.354 1.21236 139.484 1.51453 139.484 1.88258C139.484 2.25064 139.354 2.55523 139.095 2.79669C138.837 3.03815 138.507 3.15888 138.105 3.15888ZM139.208 13.0416H137.001V4.48692H139.208V13.0416ZM145.711 13.2485C144.837 13.2485 144.066 13.0588 143.399 12.6794C142.733 12.2999 142.206 11.7711 141.82 11.0926C141.436 10.4141 141.244 9.63798 141.244 8.76424C141.244 7.89049 141.436 7.11436 141.82 6.43586C142.206 5.75735 142.733 5.22855 143.399 4.84911C144.066 4.46967 144.837 4.27995 145.711 4.27995C146.803 4.27995 147.723 4.56384 148.47 5.13197C149.218 5.70216 149.695 6.4876 149.902 7.48794H147.573C147.458 7.07401 147.231 6.74872 146.89 6.51174C146.552 6.27718 146.153 6.1599 145.693 6.1599C145.084 6.1599 144.566 6.38998 144.141 6.84979C143.716 7.3096 143.503 7.94775 143.503 8.76424C143.503 9.58072 143.716 10.2189 144.141 10.6787C144.566 11.1385 145.084 11.3686 145.693 11.3686C146.153 11.3686 146.552 11.2537 146.89 11.0236C147.231 10.7935 147.458 10.4658 147.573 10.0405H149.902C149.695 11.0064 149.218 11.7825 148.47 12.3689C147.723 12.9553 146.803 13.2485 145.711 13.2485Z" fill="#F5BA41"/>
<path d="M65.2867 30.2888H62.9756L67.3909 18.2157H69.8745L74.2898 30.2888H71.9442L70.9783 27.4948H66.2698L65.2867 30.2888ZM68.6154 20.7511L66.8735 25.77H70.3747L68.6154 20.7511ZM79.5847 30.4958C78.7109 30.4958 77.9403 30.3061 77.2736 29.9266C76.6068 29.5472 76.0811 29.0184 75.6972 28.3399C75.3108 27.6614 75.1176 26.8852 75.1176 26.0115C75.1176 25.1377 75.3108 24.3616 75.6972 23.6831C76.0811 23.0046 76.6068 22.4758 77.2736 22.0964C77.9403 21.7169 78.7109 21.5272 79.5847 21.5272C80.6771 21.5272 81.5968 21.8111 82.3442 22.3792C83.0917 22.9494 83.5688 23.7349 83.7758 24.7352H81.4474C81.3325 24.3213 81.1059 23.996 80.7678 23.759C80.4274 23.5244 80.0273 23.4072 79.5674 23.4072C78.9579 23.4072 78.4405 23.6372 78.0152 24.097C77.5899 24.5569 77.377 25.195 77.377 26.0115C77.377 26.828 77.5899 27.4661 78.0152 27.9259C78.4405 28.3857 78.9579 28.6158 79.5674 28.6158C80.0273 28.6158 80.4274 28.501 80.7678 28.2709C81.1059 28.0408 81.3325 27.7131 81.4474 27.2878H83.7758C83.5688 28.2536 83.0917 29.0298 82.3442 29.6162C81.5968 30.2026 80.6771 30.4958 79.5847 30.4958ZM90.9334 30.2888H89.4329C88.536 30.2888 87.8175 30.0705 87.277 29.6334C86.7364 29.1964 86.4663 28.4202 86.4663 27.305V23.5796H85.0003V21.7342H86.4663L86.725 19.4403H88.674V21.7342H90.9851V23.5796H88.674V27.3223C88.674 27.7362 88.7637 28.0201 88.943 28.1743C89.12 28.3306 89.427 28.4089 89.864 28.4089H90.9334V30.2888ZM94.0724 20.4061C93.6698 20.4061 93.3401 20.2854 93.0824 20.0439C92.8226 19.8025 92.6926 19.4979 92.6926 19.1298C92.6926 18.7618 92.8226 18.4596 93.0824 18.2226C93.3401 17.9881 93.6698 17.8708 94.0724 17.8708C94.4749 17.8708 94.8061 17.9881 95.0658 18.2226C95.3235 18.4596 95.4522 18.7618 95.4522 19.1298C95.4522 19.4979 95.3235 19.8025 95.0658 20.0439C94.8061 20.2854 94.4749 20.4061 94.0724 20.4061ZM95.1762 30.2888H92.9686V21.7342H95.1762V30.2888ZM102.472 30.2888H99.7985L96.6595 21.7342H98.9706L101.144 28.2019L103.317 21.7342H105.628L102.472 30.2888ZM109.457 30.4958C108.721 30.4958 108.118 30.3775 107.646 30.1405C107.174 29.9059 106.824 29.5931 106.594 29.2022C106.364 28.8114 106.249 28.3802 106.249 27.9087C106.249 27.1153 106.559 26.4713 107.18 25.977C107.801 25.4827 108.733 25.2354 109.974 25.2354H112.147V25.0284C112.147 24.442 111.981 24.0108 111.647 23.7349C111.314 23.4589 110.9 23.3209 110.406 23.3209C109.957 23.3209 109.566 23.4268 109.233 23.6383C108.899 23.8521 108.692 24.166 108.612 24.58H106.456C106.514 23.9591 106.724 23.4185 107.087 22.9587C107.448 22.4989 107.916 22.1447 108.491 21.8963C109.066 21.6504 109.71 21.5272 110.423 21.5272C111.641 21.5272 112.602 21.8318 113.303 22.4413C114.004 23.0508 114.355 23.9132 114.355 25.0284V30.2888H112.475L112.268 28.909C112.015 29.3688 111.662 29.7483 111.209 30.0473C110.754 30.3464 110.17 30.4958 109.457 30.4958ZM109.957 28.771C110.589 28.771 111.082 28.5641 111.433 28.1501C111.783 27.7362 112.004 27.2247 112.096 26.6151H110.216C109.629 26.6151 109.21 26.721 108.957 26.9325C108.704 27.1464 108.577 27.4085 108.577 27.719C108.577 28.0525 108.704 28.3112 108.957 28.4951C109.21 28.6789 109.543 28.771 109.957 28.771ZM121.651 30.2888H120.15C119.253 30.2888 118.535 30.0705 117.994 29.6334C117.454 29.1964 117.184 28.4202 117.184 27.305V23.5796H115.718V21.7342H117.184L117.442 19.4403H119.391V21.7342H121.702V23.5796H119.391V27.3223C119.391 27.7362 119.481 28.0201 119.66 28.1743C119.837 28.3306 120.144 28.4089 120.581 28.4089H121.651V30.2888ZM124.79 20.4061C124.387 20.4061 124.057 20.2854 123.8 20.0439C123.54 19.8025 123.41 19.4979 123.41 19.1298C123.41 18.7618 123.54 18.4596 123.8 18.2226C124.057 17.9881 124.387 17.8708 124.79 17.8708C125.192 17.8708 125.523 17.9881 125.783 18.2226C126.041 18.4596 126.17 18.7618 126.17 19.1298C126.17 19.4979 126.041 19.8025 125.783 20.0439C125.523 20.2854 125.192 20.4061 124.79 20.4061ZM125.894 30.2888H123.686V21.7342H125.894V30.2888ZM132.31 30.4958C131.482 30.4958 130.738 30.3061 130.078 29.9266C129.415 29.5472 128.892 29.0204 128.508 28.3468C128.122 27.6752 127.929 26.897 127.929 26.0115C127.929 25.126 128.124 24.3464 128.515 23.6728C128.906 23.0012 129.433 22.4758 130.095 22.0964C130.755 21.7169 131.499 21.5272 132.327 21.5272C133.143 21.5272 133.882 21.7169 134.545 22.0964C135.205 22.4758 135.728 23.0012 136.114 23.6728C136.498 24.3464 136.69 25.126 136.69 26.0115C136.69 26.897 136.498 27.6752 136.114 28.3468C135.728 29.0204 135.201 29.5472 134.534 29.9266C133.868 30.3061 133.126 30.4958 132.31 30.4958ZM132.31 28.5813C132.885 28.5813 133.385 28.365 133.81 27.9328C134.235 27.5027 134.448 26.8625 134.448 26.0115C134.448 25.1605 134.235 24.5189 133.81 24.0867C133.385 23.6565 132.89 23.4416 132.327 23.4416C131.74 23.4416 131.238 23.6565 130.819 24.0867C130.399 24.5189 130.188 25.1605 130.188 26.0115C130.188 26.8625 130.399 27.5027 130.819 27.9328C131.238 28.365 131.735 28.5813 132.31 28.5813ZM140.864 30.2888H138.657V21.7342H140.605L140.778 23.1829C141.043 22.6769 141.425 22.2747 141.927 21.9756C142.426 21.6766 143.014 21.5272 143.693 21.5272C144.751 21.5272 145.573 21.8608 146.159 22.5275C146.745 23.1943 147.039 24.1719 147.039 25.4596V30.2888H144.831V25.6665C144.831 24.9308 144.682 24.3671 144.383 23.9763C144.084 23.5855 143.618 23.3899 142.986 23.3899C142.365 23.3899 141.857 23.6083 141.461 24.0453C141.063 24.4823 140.864 25.0915 140.864 25.8735V30.2888Z" fill="#F5BA41"/>
<path d="M65.2867 47.536H62.9756L67.3909 35.463H69.8745L74.2898 47.536H71.9442L70.9783 44.742H66.2698L65.2867 47.536ZM68.6154 37.9983L66.8735 43.0172H70.3747L68.6154 37.9983ZM79.4122 44.9834C78.9983 44.9834 78.613 44.9376 78.2566 44.8455L77.6185 45.4836C77.8141 45.5871 78.0783 45.6733 78.4119 45.7423C78.7454 45.8113 79.2856 45.8803 80.0331 45.9493C81.1714 46.0528 81.9993 46.3229 82.5167 46.7599C83.0341 47.1969 83.2928 47.8006 83.2928 48.5709C83.2928 49.0769 83.1549 49.5574 82.8789 50.0127C82.603 50.4656 82.1776 50.8337 81.6026 51.1166C81.0276 51.397 80.2918 51.5374 79.395 51.5374C78.1763 51.5374 77.1932 51.3108 76.4457 50.8578C75.6982 50.4025 75.3246 49.7206 75.3246 48.8123C75.3246 48.0421 75.6982 47.3749 76.4457 46.8116C76.2156 46.7082 76.018 46.5988 75.8524 46.4839C75.6844 46.3691 75.5374 46.2483 75.4109 46.1218V45.7251L76.9114 44.1383C76.2446 43.5519 75.911 42.7989 75.911 41.8789C75.911 41.3039 76.0524 40.781 76.3353 40.3094C76.6157 39.8379 77.0148 39.4643 77.5323 39.1884C78.0497 38.9124 78.6764 38.7744 79.4122 38.7744C79.8951 38.7744 80.3436 38.8434 80.7575 38.9814H84V40.3267L82.534 40.4302C82.764 40.8672 82.8789 41.3501 82.8789 41.8789C82.8789 42.454 82.7409 42.9769 82.465 43.4484C82.189 43.92 81.7899 44.2935 81.268 44.5695C80.7437 44.8455 80.1252 44.9834 79.4122 44.9834ZM79.4122 43.2932C79.8606 43.2932 80.2321 43.1725 80.5264 42.931C80.8186 42.6895 80.9645 42.3446 80.9645 41.8962C80.9645 41.4477 80.8186 41.1028 80.5264 40.8613C80.2321 40.6199 79.8606 40.4991 79.4122 40.4991C78.9407 40.4991 78.5612 40.6199 78.2739 40.8613C77.9866 41.1028 77.8427 41.4477 77.8427 41.8962C77.8427 42.3446 77.9866 42.6895 78.2739 42.931C78.5612 43.1725 78.9407 43.2932 79.4122 43.2932ZM77.3425 48.5881C77.3425 49.0134 77.5416 49.3332 77.9393 49.5471C78.3349 49.7585 78.8199 49.8644 79.395 49.8644C79.9469 49.8644 80.3953 49.753 80.7403 49.5298C81.0852 49.3046 81.2577 49.002 81.2577 48.6226C81.2577 48.3122 81.1463 48.0534 80.9231 47.8465C80.6978 47.6395 80.2515 47.5129 79.5847 47.467C79.1131 47.4325 78.6764 47.3808 78.2739 47.3118C77.9403 47.4957 77.7023 47.6971 77.5599 47.9155C77.415 48.1338 77.3425 48.358 77.3425 48.5881ZM89.4156 47.743C88.5533 47.743 87.7885 47.5591 87.1217 47.1911C86.455 46.823 85.9317 46.3056 85.5522 45.6388C85.1728 44.972 84.9831 44.2014 84.9831 43.3277C84.9831 42.4422 85.1704 41.6547 85.5453 40.9648C85.9179 40.2749 86.4353 39.7368 87.0976 39.3505C87.7575 38.9666 88.536 38.7744 89.4329 38.7744C90.2721 38.7744 91.0137 38.9583 91.6578 39.3263C92.3018 39.6944 92.8054 40.1966 93.1686 40.8337C93.5298 41.4729 93.7102 42.1835 93.7102 42.9655C93.7102 43.0921 93.7078 43.2242 93.7033 43.3622C93.6964 43.5002 93.6871 43.644 93.6757 43.7934H87.1735C87.2194 44.4602 87.4529 44.9834 87.8737 45.3629C88.2921 45.7423 88.8006 45.932 89.3984 45.932C89.8468 45.932 90.2238 45.831 90.5298 45.6285C90.8333 45.4284 91.06 45.1673 91.2093 44.8455H93.4515C93.2904 45.386 93.0237 45.8768 92.6512 46.3184C92.2762 46.7623 91.8164 47.1107 91.2714 47.3636C90.724 47.6164 90.1055 47.743 89.4156 47.743ZM89.4329 40.5681C88.8923 40.5681 88.4153 40.7199 88.0013 41.0235C87.5874 41.3294 87.3228 41.7927 87.208 42.4136H91.468C91.4335 41.8503 91.2266 41.4019 90.8471 41.0683C90.4677 40.7347 89.9962 40.5681 89.4329 40.5681ZM97.7805 47.536H95.5729V38.9814H97.5218L97.6943 40.4302C97.9589 39.9241 98.3418 39.5219 98.843 39.2229C99.3421 38.9238 99.9306 38.7744 100.609 38.7744C101.667 38.7744 102.489 39.108 103.075 39.7748C103.662 40.4415 103.955 41.4191 103.955 42.7068V47.536H101.747V42.9138C101.747 42.178 101.598 41.6144 101.299 41.2235C101 40.8327 100.534 40.6371 99.9019 40.6371C99.281 40.6371 98.7729 40.8555 98.3773 41.2925C97.9796 41.7296 97.7805 42.3387 97.7805 43.1207V47.536ZM110.25 47.743C109.377 47.743 108.606 47.5533 107.939 47.1738C107.272 46.7944 106.747 46.2656 106.363 45.5871C105.976 44.9086 105.783 44.1325 105.783 43.2587C105.783 42.385 105.976 41.6088 106.363 40.9303C106.747 40.2518 107.272 39.723 107.939 39.3436C108.606 38.9641 109.377 38.7744 110.25 38.7744C111.343 38.7744 112.262 39.0583 113.01 39.6264C113.757 40.1966 114.234 40.9821 114.441 41.9824H112.113C111.998 41.5685 111.772 41.2432 111.433 41.0062C111.093 40.7717 110.693 40.6544 110.233 40.6544C109.624 40.6544 109.106 40.8845 108.681 41.3443C108.255 41.8041 108.043 42.4422 108.043 43.2587C108.043 44.0752 108.255 44.7133 108.681 45.1732C109.106 45.633 109.624 45.863 110.233 45.863C110.693 45.863 111.093 45.7482 111.433 45.5181C111.772 45.288 111.998 44.9603 112.113 44.535H114.441C114.234 45.5008 113.757 46.277 113.01 46.8634C112.262 47.4498 111.343 47.743 110.25 47.743ZM119.823 51.3304H117.477L119.46 46.9669H118.943L115.614 38.9814H118.012L120.409 45.0007L122.91 38.9814H125.255L119.823 51.3304Z" fill="#F5BA41"/>
</g>
</g>
<g clip-path="url(#clip7_48_124)">
<g clip-path="url(#clip8_48_124)">
<path d="M62.9836 56.0101H65.2178V56.4098H63.4764V57.6139H64.8859V57.9984H63.4764V59.2359H65.2178V59.6356H62.9836V56.0101ZM65.5538 59.6356L66.4513 58.3222L65.5892 57.0726H66.0212C66.0584 57.0726 66.0853 57.0786 66.1022 57.0908C66.1191 57.1023 66.1342 57.1191 66.1477 57.1414L66.7751 58.1027C66.7906 58.0554 66.8125 58.0082 66.8409 57.961L67.3923 57.1515C67.4092 57.1279 67.426 57.109 67.4429 57.0948C67.4598 57.08 67.481 57.0726 67.5067 57.0726H67.9215L67.0584 58.2969L67.9569 59.6356H67.5239C67.4868 59.6356 67.4578 59.6258 67.4368 59.6063C67.4159 59.5867 67.3987 59.5651 67.3852 59.5415L66.7397 58.5378C66.7282 58.5863 66.7107 58.6302 66.6871 58.6693L66.0901 59.5415C66.0732 59.5651 66.055 59.5867 66.0354 59.6063C66.0159 59.6258 65.9892 59.6356 65.9555 59.6356H65.5538ZM68.8524 60.5038H68.4022V57.0726H68.6703C68.7344 57.0726 68.7749 57.1039 68.7917 57.1667L68.8292 57.4702C68.9391 57.3367 69.0643 57.2294 69.2046 57.1485C69.3456 57.0675 69.5081 57.027 69.6923 57.027C69.8387 57.027 69.9716 57.0554 70.091 57.112C70.211 57.1687 70.3132 57.2523 70.3975 57.363C70.4819 57.4729 70.547 57.6099 70.5928 57.7738C70.638 57.937 70.6606 58.1249 70.6606 58.3374C70.6606 58.5263 70.6353 58.7023 70.5847 58.8656C70.5341 59.0282 70.4616 59.1688 70.3672 59.2875C70.2728 59.4063 70.1567 59.5 70.0191 59.5688C69.8815 59.637 69.727 59.671 69.5557 59.671C69.3972 59.671 69.2616 59.6447 69.1489 59.5921C69.0369 59.5402 68.9381 59.466 68.8524 59.3695V60.5038ZM69.5425 57.3913C69.3961 57.3913 69.2676 57.425 69.157 57.4925C69.0464 57.56 68.9449 57.6554 68.8524 57.7789V59.0184C68.9347 59.1297 69.0251 59.2079 69.1236 59.2531C69.2228 59.299 69.3331 59.3219 69.4545 59.3219C69.6919 59.3219 69.8748 59.2366 70.0029 59.0659C70.1311 58.8959 70.1952 58.6531 70.1952 58.3374C70.1952 58.1708 70.1803 58.0278 70.1507 57.9084C70.1216 57.7883 70.0791 57.6898 70.0232 57.6129C69.9672 57.536 69.899 57.48 69.8188 57.4449C69.7378 57.4092 69.6457 57.3913 69.5425 57.3913ZM72.2088 57.0321C72.3619 57.0321 72.5036 57.0581 72.6338 57.11C72.7633 57.1613 72.8753 57.2355 72.9697 57.3326C73.0641 57.4291 73.138 57.5488 73.1913 57.6918C73.2446 57.8342 73.2712 57.9964 73.2712 58.1785C73.2712 58.2494 73.2635 58.2966 73.248 58.3202C73.2331 58.3438 73.2045 58.3556 73.162 58.3556H71.457C71.4603 58.5175 71.4823 58.6585 71.5227 58.7786C71.5632 58.898 71.6189 58.9978 71.6897 59.0781C71.7605 59.1577 71.8448 59.2174 71.9427 59.2572C72.0405 59.297 72.1501 59.3169 72.2715 59.3169C72.3848 59.3169 72.4823 59.3037 72.5639 59.2774C72.6456 59.2511 72.7161 59.2228 72.7754 59.1924C72.8341 59.1621 72.8834 59.1341 72.9232 59.1084C72.963 59.0821 72.997 59.069 73.0254 59.069C73.0625 59.069 73.0911 59.0831 73.1114 59.1115L73.2378 59.2764C73.1825 59.3439 73.1161 59.4026 73.0385 59.4525C72.9609 59.5024 72.8776 59.5432 72.7886 59.5749C72.7002 59.6066 72.6088 59.6306 72.5144 59.6468C72.4199 59.6629 72.3265 59.671 72.2341 59.671C72.0567 59.671 71.8934 59.641 71.7443 59.581C71.5953 59.5209 71.4664 59.4332 71.3578 59.3179C71.2485 59.2025 71.1635 59.0595 71.1028 58.8889C71.0421 58.7189 71.0117 58.5232 71.0117 58.302C71.0117 58.1232 71.0391 57.9563 71.0937 57.8011C71.149 57.646 71.2279 57.5117 71.3305 57.3984C71.4337 57.2844 71.5595 57.195 71.7079 57.1303C71.8563 57.0648 72.0233 57.0321 72.2088 57.0321ZM72.2189 57.364C72.001 57.364 71.8297 57.4267 71.7049 57.5522C71.5801 57.6777 71.5025 57.8517 71.4721 58.0743H72.8665C72.8665 57.9698 72.852 57.8743 72.823 57.788C72.7946 57.7009 72.7525 57.6257 72.6965 57.5623C72.6412 57.4989 72.5734 57.45 72.4931 57.4156C72.4128 57.3812 72.3214 57.364 72.2189 57.364ZM74.2952 59.6356H73.845V57.0726H74.103C74.1522 57.0726 74.186 57.082 74.2042 57.1009C74.2231 57.1191 74.2359 57.1512 74.2426 57.197L74.273 57.5967C74.3607 57.418 74.4689 57.2783 74.5978 57.1778C74.7266 57.0773 74.8781 57.027 75.0521 57.027C75.1229 57.027 75.187 57.0351 75.2444 57.0513C75.3017 57.0675 75.3547 57.0898 75.4032 57.1181L75.3455 57.4551C75.3334 57.4969 75.3071 57.5178 75.2666 57.5178C75.243 57.5178 75.2069 57.51 75.1584 57.4945C75.1091 57.4783 75.0406 57.4702 74.9529 57.4702C74.7964 57.4702 74.6652 57.5158 74.5593 57.6068C74.4541 57.6979 74.3661 57.8301 74.2952 58.0035V59.6356ZM75.9345 57.0726H76.3847V59.6356H75.9345V57.0726ZM76.4859 56.2692C76.4859 56.3123 76.4771 56.3531 76.4596 56.3916C76.4414 56.4294 76.4174 56.4631 76.3878 56.4928C76.3588 56.5218 76.3247 56.5447 76.2856 56.5616C76.2471 56.5785 76.206 56.5869 76.1621 56.5869C76.1183 56.5869 76.0775 56.5785 76.0397 56.5616C76.0012 56.5447 75.9675 56.5218 75.9385 56.4928C75.9088 56.4631 75.8855 56.4294 75.8687 56.3916C75.8518 56.3531 75.8434 56.3123 75.8434 56.2692C75.8434 56.2246 75.8518 56.1828 75.8687 56.1437C75.8855 56.1039 75.9088 56.0691 75.9385 56.0395C75.9675 56.0098 76.0012 55.9865 76.0397 55.9696C76.0775 55.9528 76.1183 55.9444 76.1621 55.9444C76.206 55.9444 76.2471 55.9528 76.2856 55.9696C76.3247 55.9865 76.3588 56.0098 76.3878 56.0395C76.4174 56.0691 76.4414 56.1039 76.4596 56.1437C76.4771 56.1828 76.4859 56.2246 76.4859 56.2692ZM78.1929 57.0321C78.3467 57.0321 78.4884 57.0581 78.6179 57.11C78.7481 57.1613 78.8604 57.2355 78.9549 57.3326C79.0493 57.4291 79.1228 57.5488 79.1754 57.6918C79.2287 57.8342 79.2554 57.9964 79.2554 58.1785C79.2554 58.2494 79.248 58.2966 79.2331 58.3202C79.2176 58.3438 79.1889 58.3556 79.1471 58.3556H77.4421C77.4455 58.5175 77.4674 58.6585 77.5079 58.7786C77.5484 58.898 77.604 58.9978 77.6749 59.0781C77.7457 59.1577 77.83 59.2174 77.9278 59.2572C78.0256 59.297 78.1352 59.3169 78.2567 59.3169C78.3693 59.3169 78.4665 59.3037 78.5481 59.2774C78.6304 59.2511 78.7009 59.2228 78.7596 59.1924C78.8189 59.1621 78.8682 59.1341 78.9073 59.1084C78.9471 59.0821 78.9815 59.069 79.0105 59.069C79.0476 59.069 79.0763 59.0831 79.0965 59.1115L79.223 59.2764C79.167 59.3439 79.1002 59.4026 79.0227 59.4525C78.9451 59.5024 78.8621 59.5432 78.7737 59.5749C78.6854 59.6066 78.594 59.6306 78.4995 59.6468C78.4051 59.6629 78.3113 59.671 78.2182 59.671C78.0415 59.671 77.8782 59.641 77.7285 59.581C77.5794 59.5209 77.4506 59.4332 77.3419 59.3179C77.2333 59.2025 77.1487 59.0595 77.088 58.8889C77.0273 58.7189 76.9969 58.5232 76.9969 58.302C76.9969 58.1232 77.0242 57.9563 77.0789 57.8011C77.1335 57.646 77.2124 57.5117 77.3156 57.3984C77.4182 57.2844 77.5436 57.195 77.6921 57.1303C77.8405 57.0648 78.0074 57.0321 78.1929 57.0321ZM78.203 57.364C77.9858 57.364 77.8148 57.4267 77.69 57.5522C77.5652 57.6777 77.4877 57.8517 77.4573 58.0743H78.8506C78.8506 57.9698 78.8365 57.8743 78.8081 57.788C78.7791 57.7009 78.737 57.6257 78.6817 57.5623C78.6257 57.4989 78.5575 57.45 78.4773 57.4156C78.3977 57.3812 78.3063 57.364 78.203 57.364ZM80.2794 59.6356H79.8291V57.0726H80.0972C80.1613 57.0726 80.2018 57.1039 80.2187 57.1667L80.2541 57.4449C80.3654 57.3215 80.4898 57.222 80.6275 57.1464C80.7651 57.0702 80.9239 57.0321 81.104 57.0321C81.2444 57.0321 81.3678 57.0554 81.4744 57.1019C81.5816 57.1485 81.6714 57.2142 81.7435 57.2992C81.815 57.3842 81.8694 57.4868 81.9065 57.6068C81.9436 57.7262 81.9621 57.8585 81.9621 58.0035V59.6356H81.5118V58.0035C81.5118 57.8099 81.4676 57.6595 81.3793 57.5522C81.2902 57.4449 81.1546 57.3913 80.9725 57.3913C80.8396 57.3913 80.7152 57.4234 80.5991 57.4874C80.4838 57.5515 80.3772 57.6385 80.2794 57.7485V59.6356ZM84.509 57.366L84.3906 57.5279C84.3771 57.5468 84.3636 57.5613 84.3501 57.5714C84.3366 57.5815 84.317 57.5866 84.2914 57.5866C84.2665 57.5866 84.2391 57.5761 84.2094 57.5552C84.1798 57.5336 84.1423 57.5104 84.0971 57.4854C84.0513 57.4598 83.9959 57.4365 83.9312 57.4156C83.8664 57.3947 83.7868 57.3842 83.6924 57.3842C83.5676 57.3842 83.457 57.4065 83.3605 57.451C83.2647 57.4955 83.1841 57.56 83.1187 57.6443C83.0539 57.7286 83.005 57.8308 82.9719 57.9509C82.9396 58.0703 82.9234 58.2042 82.9234 58.3526C82.9234 58.5077 82.9409 58.6457 82.976 58.7664C83.0117 58.8872 83.0617 58.9884 83.1257 59.07C83.1898 59.1516 83.2677 59.214 83.3595 59.2572C83.4512 59.3004 83.5544 59.3219 83.6691 59.3219C83.7791 59.3219 83.8695 59.3088 83.9403 59.2825C84.0111 59.2562 84.0702 59.2272 84.1174 59.1955C84.1646 59.1631 84.2034 59.1341 84.2337 59.1084C84.2641 59.0821 84.2944 59.069 84.3248 59.069C84.3633 59.069 84.3919 59.0831 84.4108 59.1115L84.5373 59.2764C84.426 59.4127 84.2867 59.5125 84.1194 59.5759C83.9528 59.6393 83.7767 59.671 83.5912 59.671C83.4307 59.671 83.2816 59.6414 83.144 59.582C83.007 59.5233 82.888 59.438 82.7868 59.326C82.6856 59.2133 82.6057 59.0754 82.547 58.9121C82.4889 58.7482 82.4599 58.5617 82.4599 58.3526C82.4599 58.1624 82.4866 57.9863 82.5399 57.8244C82.5932 57.6625 82.6707 57.5229 82.7726 57.4055C82.8745 57.2881 83.0006 57.1967 83.151 57.1313C83.3008 57.0652 83.4728 57.0321 83.6671 57.0321C83.8459 57.0321 84.0044 57.0614 84.1427 57.1201C84.281 57.1781 84.4031 57.2601 84.509 57.366ZM86.0187 57.0321C86.1725 57.0321 86.3141 57.0581 86.4436 57.11C86.5738 57.1613 86.6861 57.2355 86.7806 57.3326C86.875 57.4291 86.9489 57.5488 87.0022 57.6918C87.0548 57.8342 87.0811 57.9964 87.0811 58.1785C87.0811 58.2494 87.0737 58.2966 87.0588 58.3202C87.0433 58.3438 87.0147 58.3556 86.9728 58.3556H85.2679C85.2712 58.5175 85.2932 58.6585 85.3336 58.7786C85.3741 58.898 85.4298 58.9978 85.5006 59.0781C85.5714 59.1577 85.6557 59.2174 85.7535 59.2572C85.8514 59.297 85.961 59.3169 86.0824 59.3169C86.1951 59.3169 86.2925 59.3037 86.3748 59.2774C86.4565 59.2511 86.5266 59.2228 86.5853 59.1924C86.6447 59.1621 86.6942 59.1341 86.734 59.1084C86.7732 59.0821 86.8072 59.069 86.8362 59.069C86.8733 59.069 86.902 59.0831 86.9222 59.1115L87.0487 59.2764C86.9927 59.3439 86.926 59.4026 86.8484 59.4525C86.7708 59.5024 86.6878 59.5432 86.5995 59.5749C86.5111 59.6066 86.4197 59.6306 86.3253 59.6468C86.2308 59.6629 86.137 59.671 86.044 59.671C85.8672 59.671 85.7043 59.641 85.5552 59.581C85.4055 59.5209 85.2763 59.4332 85.1677 59.3179C85.0591 59.2025 84.9744 59.0595 84.9137 58.8889C84.853 58.7189 84.8226 58.5232 84.8226 58.302C84.8226 58.1232 84.85 57.9563 84.9046 57.8011C84.9592 57.646 85.0382 57.5117 85.1414 57.3984C85.2439 57.2844 85.3694 57.195 85.5178 57.1303C85.6662 57.0648 85.8331 57.0321 86.0187 57.0321ZM86.0288 57.364C85.8116 57.364 85.6406 57.4267 85.5158 57.5522C85.391 57.6777 85.3134 57.8517 85.283 58.0743H86.6764C86.6764 57.9698 86.6622 57.8743 86.6339 57.788C86.6049 57.7009 86.5627 57.6257 86.5074 57.5623C86.4514 57.4989 86.3836 57.45 86.304 57.4156C86.2237 57.3812 86.132 57.364 86.0288 57.364ZM89.4084 59.6761C89.206 59.6761 89.0505 59.6194 88.9419 59.5061C88.8326 59.3934 88.778 59.2309 88.778 59.0184V57.45H88.4694C88.4424 57.45 88.4198 57.4419 88.4016 57.4257C88.3827 57.4095 88.3733 57.3846 88.3733 57.3508V57.1717L88.7932 57.1181L88.8974 56.3268C88.9008 56.3012 88.9116 56.2806 88.9298 56.2651C88.9487 56.2489 88.9723 56.2408 89.0006 56.2408H89.2283V57.1232H89.9619V57.45H89.2283V58.988C89.2283 59.096 89.2546 59.1759 89.3072 59.2278C89.3591 59.2805 89.4266 59.3068 89.5096 59.3068C89.5568 59.3068 89.5976 59.3004 89.632 59.2875C89.6664 59.2747 89.6964 59.2609 89.7221 59.2461C89.747 59.2305 89.7686 59.2167 89.7868 59.2046C89.8044 59.1917 89.8199 59.1853 89.8334 59.1853C89.857 59.1853 89.8779 59.1995 89.8961 59.2278L90.0276 59.4434C89.9501 59.5155 89.8566 59.5725 89.7474 59.6144C89.6374 59.6555 89.5244 59.6761 89.4084 59.6761ZM90.9687 59.6356H90.5184V55.9089H90.9687V57.4166C91.0786 57.3006 91.2001 57.2075 91.3329 57.1373C91.4665 57.0672 91.62 57.0321 91.7933 57.0321C91.9337 57.0321 92.0571 57.0554 92.1637 57.1019C92.2709 57.1485 92.3603 57.2142 92.4318 57.2992C92.504 57.3842 92.5587 57.4868 92.5958 57.6068C92.6329 57.7262 92.6514 57.8585 92.6514 58.0035V59.6356H92.2011V58.0035C92.2011 57.8099 92.1566 57.6595 92.0676 57.5522C91.9792 57.4449 91.8439 57.3913 91.6618 57.3913C91.5289 57.3913 91.4045 57.4234 91.2884 57.4874C91.1731 57.5515 91.0665 57.6385 90.9687 57.7485V59.6356ZM94.3453 57.0321C94.4991 57.0321 94.6407 57.0581 94.7702 57.11C94.9004 57.1613 95.0128 57.2355 95.1072 57.3326C95.2016 57.4291 95.2755 57.5488 95.3288 57.6918C95.3814 57.8342 95.4077 57.9964 95.4077 58.1785C95.4077 58.2494 95.4003 58.2966 95.3855 58.3202C95.3699 58.3438 95.3413 58.3556 95.2994 58.3556H93.5945C93.5978 58.5175 93.6198 58.6585 93.6602 58.7786C93.7007 58.898 93.7564 58.9978 93.8272 59.0781C93.898 59.1577 93.9823 59.2174 94.0802 59.2572C94.178 59.297 94.2876 59.3169 94.409 59.3169C94.5217 59.3169 94.6191 59.3037 94.7014 59.2774C94.7831 59.2511 94.8532 59.2228 94.9119 59.1924C94.9713 59.1621 95.0208 59.1341 95.0606 59.1084C95.0998 59.0821 95.1338 59.069 95.1628 59.069C95.1999 59.069 95.2286 59.0831 95.2489 59.1115L95.3753 59.2764C95.3193 59.3439 95.2526 59.4026 95.175 59.4525C95.0974 59.5024 95.0144 59.5432 94.9261 59.5749C94.8377 59.6066 94.7463 59.6306 94.6519 59.6468C94.5574 59.6629 94.4636 59.671 94.3706 59.671C94.1938 59.671 94.0309 59.641 93.8818 59.581C93.7321 59.5209 93.6029 59.4332 93.4943 59.3179C93.3857 59.2025 93.301 59.0595 93.2403 58.8889C93.1796 58.7189 93.1492 58.5232 93.1492 58.302C93.1492 58.1232 93.1766 57.9563 93.2312 57.8011C93.2858 57.646 93.3648 57.5117 93.468 57.3984C93.5705 57.2844 93.696 57.195 93.8444 57.1303C93.9928 57.0648 94.1598 57.0321 94.3453 57.0321ZM94.3554 57.364C94.1382 57.364 93.9672 57.4267 93.8424 57.5522C93.7176 57.6777 93.64 57.8517 93.6096 58.0743H95.003C95.003 57.9698 94.9888 57.8743 94.9605 57.788C94.9315 57.7009 94.8893 57.6257 94.834 57.5623C94.778 57.4989 94.7102 57.45 94.6306 57.4156C94.5503 57.3812 94.4586 57.364 94.3554 57.364ZM97.4082 60.5038H96.9579V57.0726H97.226C97.2901 57.0726 97.3306 57.1039 97.3475 57.1667L97.3859 57.4702C97.4952 57.3367 97.6203 57.2294 97.7613 57.1485C97.9023 57.0675 98.0645 57.027 98.248 57.027C98.3951 57.027 98.5283 57.0554 98.6477 57.112C98.7678 57.1687 98.87 57.2523 98.9543 57.363C99.0386 57.4729 99.1034 57.6099 99.1486 57.7738C99.1944 57.937 99.2174 58.1249 99.2174 58.3374C99.2174 58.5263 99.1921 58.7023 99.1415 58.8656C99.0909 59.0282 99.0184 59.1688 98.9239 59.2875C98.8295 59.4063 98.7135 59.5 98.5759 59.5688C98.4382 59.637 98.2834 59.671 98.1114 59.671C97.9529 59.671 97.8176 59.6447 97.7057 59.5921C97.5937 59.5402 97.4945 59.466 97.4082 59.3695V60.5038ZM98.0993 57.3913C97.9522 57.3913 97.8237 57.425 97.7137 57.4925C97.6031 57.56 97.5013 57.6554 97.4082 57.7789V59.0184C97.4911 59.1297 97.5819 59.2079 97.6804 59.2531C97.7788 59.299 97.8888 59.3219 98.0102 59.3219C98.2483 59.3219 98.4315 59.2366 98.5597 59.0659C98.6878 58.8959 98.7519 58.6531 98.7519 58.3374C98.7519 58.1708 98.7371 58.0278 98.7074 57.9084C98.6777 57.7883 98.6352 57.6898 98.5799 57.6129C98.5239 57.536 98.4554 57.48 98.3745 57.4449C98.2935 57.4092 98.2018 57.3913 98.0993 57.3913ZM100.201 59.6356H99.7506V57.0726H100.009C100.058 57.0726 100.092 57.082 100.11 57.1009C100.129 57.1191 100.142 57.1512 100.148 57.197L100.179 57.5967C100.266 57.418 100.375 57.2783 100.503 57.1778C100.632 57.0773 100.784 57.027 100.958 57.027C101.029 57.027 101.093 57.0351 101.15 57.0513C101.207 57.0675 101.26 57.0898 101.309 57.1181L101.251 57.4551C101.239 57.4969 101.213 57.5178 101.172 57.5178C101.149 57.5178 101.113 57.51 101.064 57.4945C101.015 57.4783 100.946 57.4702 100.859 57.4702C100.702 57.4702 100.571 57.5158 100.465 57.6068C100.36 57.6979 100.272 57.8301 100.201 58.0035V59.6356ZM102.827 57.0321C103.014 57.0321 103.183 57.0635 103.334 57.1262C103.485 57.1883 103.613 57.2766 103.718 57.3913C103.823 57.506 103.904 57.645 103.961 57.8082C104.018 57.9708 104.046 58.1522 104.046 58.3526C104.046 58.555 104.018 58.7371 103.961 58.899C103.904 59.0609 103.823 59.1992 103.718 59.3138C103.613 59.4285 103.485 59.5169 103.334 59.579C103.183 59.6403 103.014 59.671 102.827 59.671C102.639 59.671 102.47 59.6403 102.32 59.579C102.169 59.5169 102.04 59.4285 101.933 59.3138C101.827 59.1992 101.746 59.0609 101.688 58.899C101.631 58.7371 101.602 58.555 101.602 58.3526C101.602 58.1522 101.631 57.9708 101.688 57.8082C101.746 57.645 101.827 57.506 101.933 57.3913C102.04 57.2766 102.169 57.1883 102.32 57.1262C102.47 57.0635 102.639 57.0321 102.827 57.0321ZM102.827 59.3189C103.08 59.3189 103.269 59.2342 103.393 59.0649C103.518 58.8956 103.581 58.6592 103.581 58.3556C103.581 58.05 103.518 57.8122 103.393 57.6423C103.269 57.4716 103.08 57.3863 102.827 57.3863C102.699 57.3863 102.587 57.4082 102.493 57.452C102.398 57.4959 102.319 57.5593 102.256 57.6423C102.193 57.7246 102.145 57.8261 102.114 57.9468C102.083 58.0676 102.068 58.2038 102.068 58.3556C102.068 58.5074 102.083 58.643 102.114 58.7624C102.145 58.8825 102.193 58.9833 102.256 59.0649C102.319 59.1472 102.398 59.21 102.493 59.2531C102.587 59.297 102.699 59.3189 102.827 59.3189ZM106.674 59.6356H106.406C106.342 59.6356 106.301 59.6043 106.284 59.5415L106.244 59.2309C106.134 59.3644 106.009 59.471 105.868 59.5506C105.727 59.6309 105.566 59.671 105.384 59.671C105.237 59.671 105.104 59.6427 104.984 59.586C104.865 59.5294 104.763 59.4464 104.678 59.3371C104.594 59.2272 104.529 59.0906 104.483 58.9273C104.438 58.7634 104.415 58.5752 104.415 58.3627C104.415 58.1738 104.441 57.9981 104.491 57.8355C104.542 57.6729 104.615 57.5316 104.71 57.4115C104.805 57.2921 104.921 57.1984 105.058 57.1303C105.194 57.0614 105.349 57.027 105.523 57.027C105.68 57.027 105.814 57.0537 105.925 57.107C106.036 57.1603 106.136 57.2348 106.223 57.3306V55.9089H106.674V59.6356ZM105.533 59.3068C105.68 59.3068 105.808 59.273 105.919 59.2056C106.03 59.1381 106.131 59.0427 106.223 58.9192V57.6797C106.141 57.5684 106.05 57.4905 105.951 57.446C105.853 57.4014 105.744 57.3792 105.624 57.3792C105.385 57.3792 105.201 57.4642 105.073 57.6342C104.945 57.8048 104.881 58.0477 104.881 58.3627C104.881 58.53 104.895 58.673 104.923 58.7917C104.952 58.9105 104.994 59.0083 105.05 59.0852C105.106 59.1621 105.174 59.2181 105.255 59.2531C105.336 59.2889 105.429 59.3068 105.533 59.3068ZM107.369 57.0726H107.819V58.7067C107.819 58.901 107.864 59.0511 107.954 59.157C108.043 59.2636 108.178 59.3169 108.359 59.3169C108.49 59.3169 108.614 59.2855 108.73 59.2228C108.847 59.1607 108.954 59.074 109.052 58.9627V57.0726H109.502V59.6356H109.234C109.17 59.6356 109.129 59.6043 109.112 59.5415L109.077 59.2663C108.966 59.3891 108.841 59.4882 108.703 59.5638C108.564 59.6387 108.406 59.6761 108.227 59.6761C108.087 59.6761 107.963 59.6528 107.857 59.6063C107.749 59.5597 107.659 59.4943 107.586 59.41C107.514 59.3257 107.46 59.2238 107.424 59.1044C107.387 58.9843 107.369 58.8518 107.369 58.7067V57.0726ZM112.109 57.366L111.991 57.5279C111.978 57.5468 111.964 57.5613 111.951 57.5714C111.937 57.5815 111.918 57.5866 111.892 57.5866C111.867 57.5866 111.84 57.5761 111.81 57.5552C111.78 57.5336 111.743 57.5104 111.698 57.4854C111.652 57.4598 111.596 57.4365 111.532 57.4156C111.467 57.3947 111.387 57.3842 111.293 57.3842C111.168 57.3842 111.057 57.4065 110.961 57.451C110.865 57.4955 110.785 57.56 110.719 57.6443C110.654 57.7286 110.606 57.8308 110.572 57.9509C110.54 58.0703 110.524 58.2042 110.524 58.3526C110.524 58.5077 110.541 58.6457 110.577 58.7664C110.612 58.8872 110.662 58.9884 110.726 59.07C110.79 59.1516 110.868 59.214 110.96 59.2572C111.052 59.3004 111.155 59.3219 111.27 59.3219C111.38 59.3219 111.47 59.3088 111.541 59.2825C111.612 59.2562 111.671 59.2272 111.718 59.1955C111.765 59.1631 111.804 59.1341 111.834 59.1084C111.865 59.0821 111.895 59.069 111.925 59.069C111.964 59.069 111.992 59.0831 112.011 59.1115L112.138 59.2764C112.027 59.4127 111.887 59.5125 111.72 59.5759C111.553 59.6393 111.377 59.671 111.192 59.671C111.031 59.671 110.882 59.6414 110.744 59.582C110.608 59.5233 110.488 59.438 110.387 59.326C110.286 59.2133 110.206 59.0754 110.147 58.9121C110.089 58.7482 110.06 58.5617 110.06 58.3526C110.06 58.1624 110.087 57.9863 110.14 57.8244C110.194 57.6625 110.271 57.5229 110.373 57.4055C110.475 57.2881 110.601 57.1967 110.752 57.1313C110.901 57.0652 111.073 57.0321 111.268 57.0321C111.446 57.0321 111.605 57.0614 111.743 57.1201C111.881 57.1781 112.004 57.2601 112.109 57.366ZM113.381 59.6761C113.179 59.6761 113.024 59.6194 112.915 59.5061C112.806 59.3934 112.752 59.2309 112.752 59.0184V57.45H112.443C112.416 57.45 112.393 57.4419 112.375 57.4257C112.356 57.4095 112.347 57.3846 112.347 57.3508V57.1717L112.767 57.1181L112.87 56.3268C112.874 56.3012 112.885 56.2806 112.904 56.2651C112.922 56.2489 112.946 56.2408 112.975 56.2408H113.202V57.1232H113.936V57.45H113.202V58.988C113.202 59.096 113.228 59.1759 113.28 59.2278C113.333 59.2805 113.4 59.3068 113.483 59.3068C113.53 59.3068 113.571 59.3004 113.606 59.2875C113.64 59.2747 113.67 59.2609 113.695 59.2461C113.721 59.2305 113.742 59.2167 113.76 59.2046C113.777 59.1917 113.793 59.1853 113.806 59.1853C113.83 59.1853 113.851 59.1995 113.87 59.2278L114.002 59.4434C113.924 59.5155 113.83 59.5725 113.72 59.6144C113.611 59.6555 113.498 59.6761 113.381 59.6761Z" fill="#FCE44D"/>
</g>
</g>
</g>
</g>
<g clip-path="url(#clip9_48_124)">
<g clip-path="url(#clip10_48_124)">
<path d="M13.2111 7.90871C21.9773 8.90011 25.7129 14.8962 26.7615 18.0312C27.4415 20.0635 27.697 21.2685 27.697 23.9256C27.697 24.4448 27.7249 25.2449 27.0271 25.3339C26.5378 25.3968 26.2588 25.0104 26.2181 24.5827C26.0345 22.6596 25.4816 20.408 23.671 18.3229C22.2392 16.6744 18.9224 13.3646 13.0884 13.8609C11.3922 14.0058 9.87779 12.6738 9.82885 10.9604C9.77674 9.13906 11.4081 7.70471 13.2111 7.90871Z" fill="#FCE44D"/>
<path d="M40.7065 52.6902C31.9402 51.6981 28.2053 45.7027 27.1561 42.5671C26.4761 40.5347 26.2206 39.3298 26.2206 36.6727C26.2206 36.1535 26.1927 35.3534 26.8904 35.2644C27.3798 35.2015 27.6588 35.5879 27.6995 36.0156C27.8831 37.9386 28.436 40.1903 30.2466 42.2754C31.6784 43.9239 34.9952 47.2337 40.8292 46.7373C42.5254 46.5924 44.0398 47.9245 44.0887 49.6378C44.1408 51.4598 42.5095 52.8942 40.7065 52.6902Z" fill="#FCE44D"/>
<path d="M4.56795 44.0479C5.55935 35.2816 11.5554 31.5461 14.6904 30.4975C16.7228 29.8175 17.9277 29.562 20.5854 29.562C21.1047 29.562 21.9048 29.5334 21.9937 30.2318C22.056 30.7212 21.6703 31.0002 21.2426 31.0408C19.3195 31.2239 17.0679 31.7774 14.9834 33.588C13.3349 35.0204 10.0251 38.3372 10.5214 44.1706C10.6663 45.8667 9.3343 47.3812 7.62096 47.4301C5.7983 47.4816 4.36395 45.8509 4.56795 44.0479Z" fill="#FCE44D"/>
<path d="M49.3494 16.5517C48.358 25.318 42.3619 29.0536 39.227 30.1022C37.1946 30.7822 35.9896 31.0376 33.3319 31.0376C32.8127 31.0376 32.0126 31.0662 31.9236 30.3678C31.8613 29.8785 32.2471 29.5995 32.6748 29.5588C34.5979 29.3758 36.8495 28.8222 38.934 27.0117C40.5825 25.5792 43.8923 22.2625 43.3959 16.4291C43.251 14.7329 44.5831 13.2185 46.2964 13.1695C48.1191 13.118 49.5534 14.7488 49.3494 16.5517Z" fill="#FCE44D"/>
<path d="M3.8576 17.7827C11.9452 14.2581 18.1776 17.5832 20.6542 19.7738C22.2595 21.1935 23.0825 22.1099 24.4114 24.4111C24.6713 24.8611 25.0958 25.5392 24.5353 25.9656C24.1432 26.2643 23.7079 26.0698 23.4594 25.7196C22.339 24.1455 20.7337 22.4728 18.1236 21.5729C16.0588 20.8611 11.5314 19.653 6.72822 23.0003C5.33136 23.9732 3.35428 23.5767 2.45502 22.1175C1.49858 20.565 2.19446 18.5072 3.8576 17.7827Z" fill="#FCE44D"/>
<path d="M50.0601 42.8162C41.9726 46.3408 35.7401 43.0158 33.2635 40.8252C31.6582 39.4054 30.8352 38.489 29.5063 36.1878C29.2464 35.7379 28.8219 35.0598 29.3817 34.6334C29.7745 34.3347 30.2092 34.5291 30.4583 34.8793C31.5787 36.4535 33.184 38.1261 35.7941 39.026C37.8589 39.7378 42.3863 40.9459 47.1895 37.5993C48.5863 36.6257 50.5634 37.0223 51.4627 38.4814C52.4191 40.034 51.7232 42.0918 50.0601 42.8162Z" fill="#FCE44D"/>
<path d="M14.4415 53.4014C10.9169 45.3138 14.2419 39.0814 16.4325 36.6048C17.8529 35.0001 18.7687 34.1765 21.0705 32.8476C21.5204 32.5877 22.1985 32.1638 22.6243 32.7237C22.923 33.1158 22.7286 33.5511 22.3784 33.7996C20.8042 34.9206 19.1316 36.5253 18.2317 39.1354C17.5199 41.1995 16.3118 45.7269 19.659 50.5308C20.632 51.9276 20.2361 53.9054 18.7763 54.8046C17.2244 55.7598 15.1666 55.0645 14.4415 53.4014Z" fill="#FCE44D"/>
<path d="M39.4756 7.19823C43.0002 15.2858 39.6752 21.5183 37.4846 23.9949C36.0648 25.6002 35.149 26.4232 32.8472 27.7527C32.3973 28.0119 31.7192 28.4365 31.2927 27.8766C30.994 27.4838 31.1891 27.0485 31.5393 26.8C33.1135 25.6796 34.7862 24.0749 35.686 21.4642C36.3978 19.3995 37.6059 14.8727 34.2587 10.0682C33.2851 8.67135 33.6816 6.69427 35.1408 5.79502C36.6933 4.83984 38.7511 5.53509 39.4756 7.19823Z" fill="#FCE44D"/>
<path d="M0.693263 31.0103C5.93498 23.9141 12.9949 23.6771 16.2354 24.3361C18.3358 24.7632 19.5064 25.1445 21.8082 26.4733C22.2582 26.7326 22.9649 27.1082 22.6929 27.7577C22.5028 28.2127 22.0287 28.2617 21.6379 28.0831C19.8807 27.2804 17.6539 26.6341 14.944 27.1597C12.7998 27.5753 8.27495 28.793 5.78881 34.0938C5.0656 35.6349 3.15524 36.2799 1.64653 35.4658C0.0418611 34.5996 -0.383933 32.4694 0.693263 31.0103Z" fill="#FCE44D"/>
<path d="M53.2237 29.5892C47.982 36.6848 40.9214 36.9218 37.6822 36.2628C35.5818 35.8357 34.4112 35.4544 32.1094 34.1255C31.6594 33.8663 30.9527 33.4907 31.2241 32.8412C31.4148 32.3861 31.8889 32.3372 32.2791 32.5158C34.0369 33.3191 36.2631 33.9648 38.9736 33.4392C41.1172 33.0236 45.642 31.8066 48.1288 26.5057C48.852 24.964 50.7624 24.3189 52.2704 25.133C53.8751 25.9992 54.3015 28.1295 53.2237 29.5892Z" fill="#FCE44D"/>
<path d="M27.6696 56.5649C20.5735 51.3232 20.3364 44.2633 20.9955 41.0234C21.4232 38.9231 21.8038 37.7524 23.1333 35.45C23.3932 35 23.7688 34.294 24.4171 34.5653C24.8721 34.756 24.921 35.2295 24.7424 35.6203C23.9398 37.3775 23.2935 39.6043 23.819 42.3142C24.2347 44.4584 25.4523 48.9826 30.7531 51.4694C32.2943 52.1926 32.9393 54.1029 32.1252 55.6117C31.2584 57.2163 29.1288 57.6428 27.6696 56.5649Z" fill="#FCE44D"/>
<path d="M26.248 4.03526C33.3442 9.27635 33.5806 16.3363 32.9216 19.5768C32.4945 21.6771 32.1138 22.8477 30.785 25.1502C30.525 25.5995 30.1494 26.3062 29.5006 26.0349C29.0456 25.8442 28.9973 25.3701 29.1758 24.9793C29.9785 23.2221 30.6248 20.9959 30.0992 18.2854C29.683 16.1418 28.466 11.6176 23.1651 9.13018C21.6234 8.4076 20.979 6.49661 21.7931 4.98853C22.6586 3.38322 24.7882 2.95743 26.248 4.03526Z" fill="#FCE44D"/>
</g>
</g>
</g>
</g>
</g>
<defs>
<clipPath id="clip0_48_124">
<rect width="150" height="60.6" fill="white"/>
</clipPath>
<clipPath id="clip1_48_124">
<rect width="149.803" height="60.7096" fill="white" transform="translate(0.0983887 -0.0548096)"/>
</clipPath>
<clipPath id="clip2_48_124">
<rect width="149.803" height="60.7096" fill="white" transform="translate(0.0983887 -0.0548096)"/>
</clipPath>
<clipPath id="clip3_48_124">
<rect width="86.9261" height="60.4076" fill="white" transform="translate(62.9756 0.0961914)"/>
</clipPath>
<clipPath id="clip4_48_124">
<rect width="86.9261" height="60.4076" fill="white" transform="translate(62.9756 0.0961914)"/>
</clipPath>
<clipPath id="clip5_48_124">
<rect width="86.9261" height="51.9686" fill="white" transform="translate(62.9756 0.0961914)"/>
</clipPath>
<clipPath id="clip6_48_124">
<rect width="86.9261" height="51.9686" fill="white" transform="translate(62.9756 0.0961914)"/>
</clipPath>
<clipPath id="clip7_48_124">
<rect width="51.0343" height="4.59486" fill="white" transform="translate(62.9756 55.9089)"/>
</clipPath>
<clipPath id="clip8_48_124">
<rect width="51.0343" height="4.59486" fill="white" transform="translate(62.9756 55.9089)"/>
</clipPath>
<clipPath id="clip9_48_124">
<rect width="53.7204" height="53.7201" fill="white" transform="translate(0.0983887 3.43994)"/>
</clipPath>
<clipPath id="clip10_48_124">
<rect width="53.7204" height="53.7201" fill="white" transform="translate(0.0983887 3.43994)"/>
</clipPath>
</defs>
</svg>
