<svg width="150" height="61" viewBox="0 0 150 61" fill="none" xmlns="http://www.w3.org/2000/svg">
<g clip-path="url(#clip0_48_461)">
<g clip-path="url(#clip1_48_461)">
<g clip-path="url(#clip2_48_461)">
<path d="M59.1313 1.44322C59.1313 0.615882 58.8026 -0.0548096 58.3971 -0.0548096C57.9916 -0.0548096 57.6628 0.615882 57.6628 1.44322V59.1568C57.6628 59.9841 57.9916 60.6548 58.3971 60.6548C58.8026 60.6548 59.1313 59.9841 59.1313 59.1568V1.44322Z" fill="white"/>
<g clip-path="url(#clip3_48_461)">
<g clip-path="url(#clip4_48_461)">
<g clip-path="url(#clip5_48_461)">
<g clip-path="url(#clip6_48_461)">
<path d="M69.4088 13.2485C68.2015 13.2485 67.147 12.9839 66.2456 12.4551C65.3419 11.9263 64.6347 11.1926 64.1242 10.2544C63.6113 9.31856 63.355 8.23544 63.355 7.00502C63.355 5.7746 63.6113 4.69044 64.1242 3.75219C64.6347 2.81635 65.3419 2.08369 66.2456 1.55489C67.147 1.02609 68.2015 0.761514 69.4088 0.761514C70.6047 0.761514 71.6568 1.02609 72.565 1.55489C73.4733 2.08369 74.1804 2.81635 74.6864 3.75219C75.1925 4.69044 75.4453 5.7746 75.4453 7.00502C75.4453 8.23544 75.1925 9.31856 74.6864 10.2544C74.1804 11.1926 73.4733 11.9263 72.565 12.4551C71.6568 12.9839 70.6047 13.2485 69.4088 13.2485ZM69.4088 11.2651C70.5585 11.2651 71.476 10.8856 72.1614 10.1268C72.8444 9.36789 73.1859 8.32719 73.1859 7.00502C73.1859 5.68284 72.8444 4.64214 72.1614 3.88327C71.476 3.12439 70.5585 2.74495 69.4088 2.74495C68.2591 2.74495 67.3391 3.12439 66.6492 3.88327C65.9593 4.64214 65.6144 5.68284 65.6144 7.00502C65.6144 8.32719 65.9593 9.36789 66.6492 10.1268C67.3391 10.8856 68.2591 11.2651 69.4088 11.2651ZM79.5501 16.8359H77.3425V4.48692H79.3087L79.5501 5.71147C79.8261 5.33203 80.1917 4.99847 80.6471 4.71113C81.1 4.42379 81.6888 4.27995 82.4132 4.27995C83.2179 4.27995 83.9368 4.47554 84.5691 4.86636C85.2014 5.25718 85.7015 5.79185 86.0696 6.47035C86.4377 7.14886 86.6215 7.91912 86.6215 8.78148C86.6215 9.64385 86.4377 10.4107 86.0696 11.0823C85.7015 11.7559 85.2014 12.2861 84.5691 12.6725C83.9368 13.0564 83.2179 13.2485 82.4132 13.2485C81.7692 13.2485 81.2059 13.1278 80.723 12.8863C80.24 12.6449 79.8492 12.3058 79.5501 11.8687V16.8359ZM81.9475 11.3168C82.6488 11.3168 83.2297 11.0812 83.6895 10.6097C84.1493 10.1382 84.3794 9.52898 84.3794 8.78148C84.3794 8.03399 84.1493 7.41895 83.6895 6.93603C83.2297 6.4531 82.6488 6.21164 81.9475 6.21164C81.2345 6.21164 80.6516 6.44966 80.1986 6.92568C79.7433 7.40412 79.5156 8.01674 79.5156 8.76424C79.5156 9.51173 79.7433 10.1233 80.1986 10.5993C80.6516 11.0778 81.2345 11.3168 81.9475 11.3168ZM93.5549 13.0416H92.0544C91.1575 13.0416 90.439 12.8232 89.8985 12.3862C89.358 11.9491 89.0879 11.173 89.0879 10.0578V6.33237H87.6219V4.48692H89.0879L89.3466 2.19303H91.2955V4.48692H93.6066V6.33237H91.2955V10.075C91.2955 10.489 91.3852 10.7729 91.5646 10.927C91.7415 11.0833 92.0485 11.1616 92.4856 11.1616H93.5549V13.0416ZM96.6939 3.15888C96.2914 3.15888 95.9616 3.03815 95.7039 2.79669C95.4442 2.55523 95.3141 2.25064 95.3141 1.88258C95.3141 1.51453 95.4442 1.21236 95.7039 0.975379C95.9616 0.740817 96.2914 0.623535 96.6939 0.623535C97.0965 0.623535 97.4276 0.740817 97.6873 0.975379C97.945 1.21236 98.0737 1.51453 98.0737 1.88258C98.0737 2.25064 97.945 2.55523 97.6873 2.79669C97.4276 3.03815 97.0965 3.15888 96.6939 3.15888ZM97.7977 13.0416H95.5901V4.48692H97.7977V13.0416ZM102.317 13.0416H100.109V4.48692H102.058L102.248 5.64248C102.523 5.22855 102.889 4.8974 103.344 4.64904C103.797 4.4031 104.323 4.27995 104.921 4.27995C106.243 4.27995 107.18 4.79151 107.732 5.81496C108.043 5.34342 108.46 4.96984 108.984 4.69389C109.506 4.41793 110.078 4.27995 110.699 4.27995C111.814 4.27995 112.671 4.61351 113.269 5.28029C113.866 5.94707 114.165 6.92464 114.165 8.21232V13.0416H111.958V8.41929C111.958 7.68352 111.817 7.11988 111.537 6.72906C111.254 6.33824 110.819 6.14265 110.233 6.14265C109.635 6.14265 109.156 6.361 108.795 6.79805C108.431 7.2351 108.25 7.84427 108.25 8.62626V13.0416H106.042V8.41929C106.042 7.68352 105.898 7.11988 105.611 6.72906C105.323 6.33824 104.88 6.14265 104.283 6.14265C103.696 6.14265 103.223 6.361 102.862 6.79805C102.498 7.2351 102.317 7.84427 102.317 8.62626V13.0416ZM117.46 3.15888C117.057 3.15888 116.726 3.03815 116.466 2.79669C116.208 2.55523 116.08 2.25064 116.08 1.88258C116.08 1.51453 116.208 1.21236 116.466 0.975379C116.726 0.740817 117.057 0.623535 117.46 0.623535C117.862 0.623535 118.192 0.740817 118.45 0.975379C118.709 1.21236 118.839 1.51453 118.839 1.88258C118.839 2.25064 118.709 2.55523 118.45 2.79669C118.192 3.03815 117.862 3.15888 117.46 3.15888ZM118.563 13.0416H116.356V4.48692H118.563V13.0416ZM124.41 13.2485C123.651 13.2485 122.985 13.1243 122.41 12.876C121.835 12.63 121.375 12.2885 121.03 11.8515C120.685 11.4144 120.478 10.9088 120.409 10.3337H122.634C122.703 10.6673 122.889 10.9512 123.193 11.1858C123.499 11.4227 123.893 11.541 124.376 11.541C124.859 11.541 125.212 11.4434 125.435 11.2478C125.66 11.0523 125.773 10.828 125.773 10.5752C125.773 10.2071 125.612 9.95671 125.29 9.82322C124.968 9.69214 124.52 9.56347 123.945 9.43688C123.576 9.35651 123.203 9.25854 122.823 9.14368C122.444 9.02881 122.097 8.88152 121.782 8.70215C121.464 8.52519 121.208 8.29511 121.013 8.01226C120.817 7.73182 120.719 7.38446 120.719 6.97052C120.719 6.21164 121.022 5.5735 121.627 5.05608C122.229 4.53866 123.076 4.27995 124.169 4.27995C125.18 4.27995 125.988 4.51555 126.59 4.98709C127.195 5.45863 127.555 6.10816 127.67 6.93603H125.583C125.456 6.30374 124.979 5.98743 124.152 5.98743C123.738 5.98743 123.418 6.0678 123.193 6.22889C122.969 6.38998 122.858 6.59108 122.858 6.83254C122.858 7.08539 123.025 7.28684 123.358 7.4362C123.692 7.58556 124.134 7.72354 124.686 7.85013C125.284 7.98811 125.832 8.13989 126.332 8.30546C126.833 8.47345 127.233 8.72043 127.532 9.04709C127.831 9.37582 127.98 9.84495 127.98 10.4545C127.992 10.9833 127.854 11.4607 127.566 11.886C127.279 12.3113 126.865 12.6449 126.325 12.8863C125.784 13.1278 125.146 13.2485 124.41 13.2485ZM134.966 13.0416H133.465C132.568 13.0416 131.85 12.8232 131.309 12.3862C130.769 11.9491 130.499 11.173 130.499 10.0578V6.33237H129.032V4.48692H130.499L130.757 2.19303H132.706V4.48692H135.017V6.33237H132.706V10.075C132.706 10.489 132.795 10.7729 132.972 10.927C133.151 11.0833 133.459 11.1616 133.896 11.1616H134.966V13.0416ZM138.105 3.15888C137.702 3.15888 137.371 3.03815 137.111 2.79669C136.853 2.55523 136.725 2.25064 136.725 1.88258C136.725 1.51453 136.853 1.21236 137.111 0.975379C137.371 0.740817 137.702 0.623535 138.105 0.623535C138.507 0.623535 138.837 0.740817 139.095 0.975379C139.354 1.21236 139.484 1.51453 139.484 1.88258C139.484 2.25064 139.354 2.55523 139.095 2.79669C138.837 3.03815 138.507 3.15888 138.105 3.15888ZM139.208 13.0416H137.001V4.48692H139.208V13.0416ZM145.711 13.2485C144.837 13.2485 144.066 13.0588 143.399 12.6794C142.733 12.2999 142.206 11.7711 141.82 11.0926C141.436 10.4141 141.244 9.63798 141.244 8.76424C141.244 7.89049 141.436 7.11437 141.82 6.43586C142.206 5.75735 142.733 5.22855 143.399 4.84911C144.066 4.46967 144.837 4.27995 145.711 4.27995C146.803 4.27995 147.723 4.56384 148.47 5.13197C149.218 5.70216 149.695 6.4876 149.902 7.48794H147.573C147.458 7.07401 147.231 6.74872 146.89 6.51175C146.552 6.27718 146.153 6.1599 145.693 6.1599C145.084 6.1599 144.566 6.38998 144.141 6.84979C143.716 7.3096 143.503 7.94775 143.503 8.76424C143.503 9.58072 143.716 10.2189 144.141 10.6787C144.566 11.1385 145.084 11.3686 145.693 11.3686C146.153 11.3686 146.552 11.2537 146.89 11.0236C147.231 10.7935 147.458 10.4658 147.573 10.0405H149.902C149.695 11.0064 149.218 11.7825 148.47 12.3689C147.723 12.9553 146.803 13.2485 145.711 13.2485Z" fill="white"/>
<path d="M65.2867 30.2888H62.9756L67.3909 18.2157H69.8745L74.2898 30.2888H71.9442L70.9783 27.4948H66.2698L65.2867 30.2888ZM68.6154 20.7511L66.8735 25.77H70.3747L68.6154 20.7511ZM79.5847 30.4958C78.7109 30.4958 77.9403 30.3061 77.2736 29.9266C76.6068 29.5472 76.0811 29.0184 75.6972 28.3399C75.3108 27.6614 75.1176 26.8852 75.1176 26.0115C75.1176 25.1377 75.3108 24.3616 75.6972 23.6831C76.0811 23.0046 76.6068 22.4758 77.2736 22.0964C77.9403 21.7169 78.7109 21.5272 79.5847 21.5272C80.6771 21.5272 81.5967 21.8111 82.3442 22.3792C83.0917 22.9494 83.5688 23.7349 83.7758 24.7352H81.4474C81.3325 24.3213 81.1059 23.996 80.7678 23.759C80.4274 23.5244 80.0272 23.4072 79.5674 23.4072C78.9579 23.4072 78.4405 23.6372 78.0152 24.097C77.5899 24.5569 77.377 25.195 77.377 26.0115C77.377 26.828 77.5899 27.4661 78.0152 27.9259C78.4405 28.3857 78.9579 28.6158 79.5674 28.6158C80.0272 28.6158 80.4274 28.501 80.7678 28.2709C81.1059 28.0408 81.3325 27.7131 81.4474 27.2878H83.7758C83.5688 28.2536 83.0917 29.0298 82.3442 29.6162C81.5967 30.2026 80.6771 30.4958 79.5847 30.4958ZM90.9334 30.2888H89.4329C88.536 30.2888 87.8175 30.0705 87.277 29.6334C86.7364 29.1964 86.4663 28.4202 86.4663 27.305V23.5796H85.0003V21.7342H86.4663L86.725 19.4403H88.674V21.7342H90.9851V23.5796H88.674V27.3223C88.674 27.7362 88.7637 28.0201 88.943 28.1743C89.12 28.3306 89.427 28.4089 89.864 28.4089H90.9334V30.2888ZM94.0724 20.4061C93.6698 20.4061 93.3401 20.2854 93.0824 20.0439C92.8226 19.8025 92.6926 19.4979 92.6926 19.1298C92.6926 18.7618 92.8226 18.4596 93.0824 18.2226C93.3401 17.9881 93.6698 17.8708 94.0724 17.8708C94.4749 17.8708 94.8061 17.9881 95.0658 18.2226C95.3235 18.4596 95.4522 18.7618 95.4522 19.1298C95.4522 19.4979 95.3235 19.8025 95.0658 20.0439C94.8061 20.2854 94.4749 20.4061 94.0724 20.4061ZM95.1762 30.2888H92.9685V21.7342H95.1762V30.2888ZM102.472 30.2888H99.7985L96.6595 21.7342H98.9706L101.144 28.2019L103.317 21.7342H105.628L102.472 30.2888ZM109.457 30.4958C108.721 30.4958 108.117 30.3775 107.646 30.1405C107.174 29.9059 106.824 29.5931 106.594 29.2022C106.364 28.8114 106.249 28.3802 106.249 27.9087C106.249 27.1153 106.559 26.4713 107.18 25.977C107.801 25.4827 108.733 25.2354 109.974 25.2354H112.147V25.0284C112.147 24.442 111.981 24.0108 111.647 23.7349C111.314 23.4589 110.9 23.3209 110.406 23.3209C109.957 23.3209 109.566 23.4268 109.233 23.6383C108.899 23.8521 108.692 24.166 108.612 24.58H106.456C106.514 23.9591 106.724 23.4185 107.087 22.9587C107.448 22.4989 107.916 22.1447 108.491 21.8963C109.066 21.6504 109.71 21.5272 110.423 21.5272C111.641 21.5272 112.602 21.8318 113.303 22.4413C114.004 23.0508 114.355 23.9132 114.355 25.0284V30.2888H112.475L112.268 28.909C112.015 29.3688 111.662 29.7483 111.209 30.0473C110.754 30.3464 110.17 30.4958 109.457 30.4958ZM109.957 28.7711C110.589 28.7711 111.082 28.5641 111.433 28.1501C111.783 27.7362 112.004 27.2247 112.096 26.6151H110.216C109.629 26.6151 109.21 26.721 108.957 26.9325C108.704 27.1464 108.577 27.4085 108.577 27.719C108.577 28.0525 108.704 28.3112 108.957 28.4951C109.21 28.6789 109.543 28.7711 109.957 28.7711ZM121.651 30.2888H120.15C119.253 30.2888 118.535 30.0705 117.994 29.6334C117.454 29.1964 117.184 28.4202 117.184 27.305V23.5796H115.718V21.7342H117.184L117.442 19.4403H119.391V21.7342H121.702V23.5796H119.391V27.3223C119.391 27.7362 119.481 28.0201 119.66 28.1743C119.837 28.3306 120.144 28.4089 120.581 28.4089H121.651V30.2888ZM124.79 20.4061C124.387 20.4061 124.057 20.2854 123.8 20.0439C123.54 19.8025 123.41 19.4979 123.41 19.1298C123.41 18.7618 123.54 18.4596 123.8 18.2226C124.057 17.9881 124.387 17.8708 124.79 17.8708C125.192 17.8708 125.523 17.9881 125.783 18.2226C126.041 18.4596 126.17 18.7618 126.17 19.1298C126.17 19.4979 126.041 19.8025 125.783 20.0439C125.523 20.2854 125.192 20.4061 124.79 20.4061ZM125.894 30.2888H123.686V21.7342H125.894V30.2888ZM132.31 30.4958C131.482 30.4958 130.738 30.3061 130.078 29.9266C129.415 29.5472 128.892 29.0204 128.508 28.3468C128.122 27.6752 127.929 26.897 127.929 26.0115C127.929 25.126 128.124 24.3464 128.515 23.6728C128.906 23.0012 129.433 22.4758 130.095 22.0964C130.755 21.7169 131.499 21.5272 132.327 21.5272C133.143 21.5272 133.882 21.7169 134.545 22.0964C135.205 22.4758 135.728 23.0012 136.114 23.6728C136.498 24.3464 136.69 25.126 136.69 26.0115C136.69 26.897 136.498 27.6752 136.114 28.3468C135.728 29.0204 135.201 29.5472 134.534 29.9266C133.868 30.3061 133.126 30.4958 132.31 30.4958ZM132.31 28.5813C132.885 28.5813 133.385 28.3651 133.81 27.9328C134.235 27.5027 134.448 26.8625 134.448 26.0115C134.448 25.1605 134.235 24.5189 133.81 24.0867C133.385 23.6566 132.89 23.4416 132.327 23.4416C131.74 23.4416 131.238 23.6566 130.819 24.0867C130.399 24.5189 130.188 25.1605 130.188 26.0115C130.188 26.8625 130.399 27.5027 130.819 27.9328C131.238 28.3651 131.734 28.5813 132.31 28.5813ZM140.864 30.2888H138.657V21.7342H140.605L140.778 23.1829C141.042 22.6769 141.425 22.2747 141.927 21.9756C142.426 21.6766 143.014 21.5272 143.693 21.5272C144.751 21.5272 145.573 21.8608 146.159 22.5275C146.745 23.1943 147.039 24.1719 147.039 25.4596V30.2888H144.831V25.6665C144.831 24.9308 144.682 24.3671 144.383 23.9763C144.084 23.5855 143.618 23.3899 142.986 23.3899C142.365 23.3899 141.857 23.6083 141.461 24.0453C141.063 24.4823 140.864 25.0915 140.864 25.8735V30.2888Z" fill="white"/>
<path d="M65.2867 47.536H62.9756L67.3909 35.463H69.8745L74.2898 47.536H71.9442L70.9783 44.742H66.2698L65.2867 47.536ZM68.6154 37.9983L66.8735 43.0172H70.3747L68.6154 37.9983ZM79.4122 44.9834C78.9983 44.9834 78.613 44.9376 78.2566 44.8455L77.6185 45.4836C77.8141 45.5871 78.0783 45.6733 78.4119 45.7423C78.7454 45.8113 79.2856 45.8803 80.0331 45.9493C81.1714 46.0528 81.9993 46.3229 82.5167 46.7599C83.0341 47.1969 83.2928 47.8006 83.2928 48.5709C83.2928 49.0769 83.1549 49.5574 82.8789 50.0127C82.6029 50.4656 82.1776 50.8337 81.6026 51.1166C81.0276 51.397 80.2918 51.5374 79.395 51.5374C78.1763 51.5374 77.1932 51.3108 76.4457 50.8578C75.6982 50.4025 75.3246 49.7206 75.3246 48.8123C75.3246 48.0421 75.6982 47.3749 76.4457 46.8116C76.2156 46.7082 76.018 46.5988 75.8524 46.4839C75.6844 46.3691 75.5374 46.2483 75.4108 46.1218V45.7251L76.9114 44.1383C76.2446 43.5519 75.911 42.7989 75.911 41.8789C75.911 41.3039 76.0524 40.781 76.3353 40.3094C76.6157 39.8379 77.0148 39.4643 77.5323 39.1884C78.0497 38.9124 78.6764 38.7744 79.4122 38.7744C79.8951 38.7744 80.3436 38.8434 80.7575 38.9814H84V40.3267L82.534 40.4302C82.764 40.8672 82.8789 41.3501 82.8789 41.8789C82.8789 42.454 82.7409 42.9769 82.465 43.4484C82.189 43.92 81.7899 44.2935 81.268 44.5695C80.7437 44.8455 80.1252 44.9834 79.4122 44.9834ZM79.4122 43.2932C79.8606 43.2932 80.2321 43.1725 80.5264 42.931C80.8186 42.6896 80.9645 42.3446 80.9645 41.8962C80.9645 41.4477 80.8186 41.1028 80.5264 40.8613C80.2321 40.6199 79.8606 40.4991 79.4122 40.4991C78.9407 40.4991 78.5612 40.6199 78.2739 40.8613C77.9866 41.1028 77.8427 41.4477 77.8427 41.8962C77.8427 42.3446 77.9866 42.6896 78.2739 42.931C78.5612 43.1725 78.9407 43.2932 79.4122 43.2932ZM77.3425 48.5881C77.3425 49.0134 77.5416 49.3332 77.9393 49.5471C78.3349 49.7585 78.8199 49.8644 79.395 49.8644C79.9469 49.8644 80.3953 49.753 80.7402 49.5298C81.0852 49.3046 81.2577 49.002 81.2577 48.6226C81.2577 48.3122 81.1462 48.0534 80.9231 47.8465C80.6978 47.6395 80.2515 47.5129 79.5847 47.467C79.1131 47.4325 78.6764 47.3808 78.2739 47.3118C77.9403 47.4957 77.7023 47.6971 77.5599 47.9155C77.415 48.1338 77.3425 48.358 77.3425 48.5881ZM89.4156 47.743C88.5533 47.743 87.7885 47.5591 87.1217 47.1911C86.455 46.823 85.9317 46.3056 85.5522 45.6388C85.1728 44.9721 84.9831 44.2014 84.9831 43.3277C84.9831 42.4422 85.1704 41.6547 85.5453 40.9648C85.9179 40.2749 86.4353 39.7368 87.0976 39.3505C87.7575 38.9666 88.536 38.7744 89.4329 38.7744C90.2721 38.7744 91.0137 38.9583 91.6578 39.3263C92.3018 39.6944 92.8054 40.1966 93.1686 40.8337C93.5298 41.4729 93.7102 42.1835 93.7102 42.9655C93.7102 43.0921 93.7078 43.2242 93.7033 43.3622C93.6964 43.5002 93.6871 43.644 93.6757 43.7934H87.1735C87.2193 44.4602 87.4529 44.9834 87.8737 45.3629C88.2921 45.7423 88.8006 45.932 89.3984 45.932C89.8468 45.932 90.2238 45.831 90.5298 45.6285C90.8333 45.4284 91.06 45.1673 91.2093 44.8455H93.4515C93.2904 45.386 93.0237 45.8768 92.6512 46.3184C92.2762 46.7623 91.8164 47.1107 91.2714 47.3636C90.724 47.6164 90.1055 47.743 89.4156 47.743ZM89.4329 40.5681C88.8923 40.5681 88.4153 40.7199 88.0013 41.0235C87.5874 41.3294 87.3228 41.7927 87.208 42.4136H91.468C91.4335 41.8503 91.2266 41.4019 90.8471 41.0683C90.4677 40.7347 89.9962 40.5681 89.4329 40.5681ZM97.7805 47.536H95.5729V38.9814H97.5218L97.6943 40.4302C97.9589 39.9241 98.3418 39.5219 98.843 39.2229C99.3421 38.9238 99.9306 38.7744 100.609 38.7744C101.667 38.7744 102.489 39.108 103.075 39.7748C103.662 40.4415 103.955 41.4191 103.955 42.7068V47.536H101.747V42.9138C101.747 42.178 101.598 41.6144 101.299 41.2235C101 40.8327 100.534 40.6371 99.9019 40.6371C99.281 40.6371 98.7729 40.8555 98.3773 41.2925C97.9796 41.7296 97.7805 42.3387 97.7805 43.1207V47.536ZM110.25 47.743C109.377 47.743 108.606 47.5533 107.939 47.1738C107.272 46.7944 106.747 46.2656 106.363 45.5871C105.976 44.9086 105.783 44.1325 105.783 43.2587C105.783 42.385 105.976 41.6088 106.363 40.9303C106.747 40.2518 107.272 39.723 107.939 39.3436C108.606 38.9641 109.377 38.7744 110.25 38.7744C111.343 38.7744 112.262 39.0583 113.01 39.6264C113.757 40.1966 114.234 40.9821 114.441 41.9824H112.113C111.998 41.5685 111.771 41.2432 111.433 41.0062C111.093 40.7717 110.693 40.6544 110.233 40.6544C109.624 40.6544 109.106 40.8845 108.681 41.3443C108.255 41.8041 108.043 42.4422 108.043 43.2587C108.043 44.0752 108.255 44.7133 108.681 45.1732C109.106 45.633 109.624 45.863 110.233 45.863C110.693 45.863 111.093 45.7482 111.433 45.5181C111.771 45.288 111.998 44.9603 112.113 44.535H114.441C114.234 45.5009 113.757 46.277 113.01 46.8634C112.262 47.4498 111.343 47.743 110.25 47.743ZM119.823 51.3304H117.477L119.46 46.9669H118.943L115.614 38.9814H118.012L120.409 45.0007L122.91 38.9814H125.255L119.823 51.3304Z" fill="white"/>
</g>
</g>
<g clip-path="url(#clip7_48_461)">
<g clip-path="url(#clip8_48_461)">
<path d="M62.9834 56.0101H65.2176V56.4098H63.4762V57.6139H64.8857V57.9984H63.4762V59.2359H65.2176V59.6356H62.9834V56.0101ZM65.5535 59.6356L66.451 58.3222L65.5889 57.0726H66.021C66.0581 57.0726 66.0851 57.0786 66.102 57.0908C66.1188 57.1023 66.134 57.1191 66.1475 57.1414L66.7748 58.1027C66.7904 58.0554 66.8123 58.0082 66.8406 57.961L67.3921 57.1515C67.4089 57.1279 67.4258 57.109 67.4427 57.0948C67.4595 57.08 67.4808 57.0726 67.5064 57.0726H67.9213L67.0582 58.2969L67.9567 59.6356H67.5236C67.4865 59.6356 67.4575 59.6258 67.4366 59.6063C67.4157 59.5867 67.3985 59.5651 67.385 59.5415L66.7394 58.5378C66.728 58.5863 66.7104 58.6302 66.6868 58.6693L66.0898 59.5415C66.0729 59.5651 66.0547 59.5867 66.0352 59.6063C66.0156 59.6258 65.989 59.6356 65.9552 59.6356H65.5535ZM68.8522 60.5038H68.4019V57.0726H68.6701C68.7341 57.0726 68.7746 57.1039 68.7915 57.1667L68.8289 57.4702C68.9389 57.3367 69.064 57.2294 69.2043 57.1485C69.3453 57.0675 69.5079 57.027 69.692 57.027C69.8384 57.027 69.9713 57.0554 70.0907 57.112C70.2108 57.1687 70.313 57.2523 70.3973 57.363C70.4816 57.4729 70.5467 57.6099 70.5926 57.7738C70.6378 57.937 70.6604 58.1249 70.6604 58.3374C70.6604 58.5263 70.6351 58.7023 70.5845 58.8656C70.5339 59.0282 70.4614 59.1688 70.3669 59.2875C70.2725 59.4063 70.1565 59.5 70.0189 59.5688C69.8813 59.637 69.7268 59.671 69.5554 59.671C69.3969 59.671 69.2613 59.6447 69.1487 59.5921C69.0367 59.5402 68.9379 59.466 68.8522 59.3695V60.5038ZM69.5423 57.3913C69.3959 57.3913 69.2674 57.425 69.1568 57.4925C69.0461 57.56 68.9446 57.6554 68.8522 57.7789V59.0184C68.9345 59.1297 69.0249 59.2079 69.1234 59.2531C69.2225 59.299 69.3328 59.3219 69.4542 59.3219C69.6917 59.3219 69.8745 59.2366 70.0027 59.0659C70.1308 58.8959 70.1949 58.6531 70.1949 58.3374C70.1949 58.1708 70.1801 58.0278 70.1504 57.9084C70.1214 57.7883 70.0789 57.6898 70.0229 57.6129C69.9669 57.536 69.8988 57.48 69.8185 57.4449C69.7376 57.4092 69.6455 57.3913 69.5423 57.3913ZM72.2085 57.0321C72.3617 57.0321 72.5033 57.0581 72.6335 57.11C72.763 57.1613 72.875 57.2355 72.9695 57.3326C73.0639 57.4291 73.1378 57.5488 73.1911 57.6918C73.2443 57.8342 73.271 57.9964 73.271 58.1785C73.271 58.2494 73.2632 58.2966 73.2477 58.3202C73.2329 58.3438 73.2042 58.3556 73.1617 58.3556H71.4567C71.4601 58.5175 71.482 58.6585 71.5225 58.7786C71.563 58.898 71.6186 58.9978 71.6895 59.0781C71.7603 59.1577 71.8446 59.2174 71.9424 59.2572C72.0402 59.297 72.1498 59.3169 72.2713 59.3169C72.3846 59.3169 72.4821 59.3037 72.5637 59.2774C72.6453 59.2511 72.7158 59.2228 72.7752 59.1924C72.8339 59.1621 72.8831 59.1341 72.9229 59.1084C72.9627 59.0821 72.9968 59.069 73.0251 59.069C73.0622 59.069 73.0909 59.0831 73.1111 59.1115L73.2376 59.2764C73.1823 59.3439 73.1158 59.4026 73.0383 59.4525C72.9607 59.5024 72.8774 59.5432 72.7883 59.5749C72.7 59.6066 72.6086 59.6306 72.5141 59.6468C72.4197 59.6629 72.3262 59.671 72.2338 59.671C72.0564 59.671 71.8932 59.641 71.7441 59.581C71.595 59.5209 71.4662 59.4332 71.3576 59.3179C71.2483 59.2025 71.1633 59.0595 71.1026 58.8889C71.0419 58.7189 71.0115 58.5232 71.0115 58.302C71.0115 58.1232 71.0388 57.9563 71.0935 57.8011C71.1488 57.646 71.2277 57.5117 71.3302 57.3984C71.4334 57.2844 71.5593 57.195 71.7077 57.1303C71.8561 57.0648 72.023 57.0321 72.2085 57.0321ZM72.2187 57.364C72.0008 57.364 71.8294 57.4267 71.7046 57.5522C71.5798 57.6777 71.5023 57.8517 71.4719 58.0743H72.8662C72.8662 57.9698 72.8517 57.8743 72.8227 57.788C72.7944 57.7009 72.7522 57.6257 72.6963 57.5623C72.6409 57.4989 72.5731 57.45 72.4929 57.4156C72.4126 57.3812 72.3212 57.364 72.2187 57.364ZM74.295 59.6356H73.8447V57.0726H74.1027C74.152 57.0726 74.1857 57.082 74.2039 57.1009C74.2228 57.1191 74.2356 57.1512 74.2424 57.197L74.2727 57.5967C74.3604 57.418 74.4687 57.2783 74.5975 57.1778C74.7264 57.0773 74.8778 57.027 75.0519 57.027C75.1227 57.027 75.1868 57.0351 75.2441 57.0513C75.3015 57.0675 75.3544 57.0898 75.403 57.1181L75.3453 57.4551C75.3332 57.4969 75.3069 57.5178 75.2664 57.5178C75.2428 57.5178 75.2067 57.51 75.1581 57.4945C75.1089 57.4783 75.0404 57.4702 74.9527 57.4702C74.7962 57.4702 74.665 57.5158 74.5591 57.6068C74.4539 57.6979 74.3658 57.8301 74.295 58.0035V59.6356ZM75.9342 57.0726H76.3845V59.6356H75.9342V57.0726ZM76.4857 56.2692C76.4857 56.3123 76.4769 56.3531 76.4594 56.3916C76.4411 56.4294 76.4172 56.4631 76.3875 56.4928C76.3585 56.5218 76.3244 56.5447 76.2853 56.5616C76.2469 56.5785 76.2057 56.5869 76.1619 56.5869C76.118 56.5869 76.0772 56.5785 76.0394 56.5616C76.001 56.5447 75.9673 56.5218 75.9383 56.4928C75.9086 56.4631 75.8853 56.4294 75.8684 56.3916C75.8516 56.3531 75.8431 56.3123 75.8431 56.2692C75.8431 56.2246 75.8516 56.1828 75.8684 56.1437C75.8853 56.1039 75.9086 56.0691 75.9383 56.0395C75.9673 56.0098 76.001 55.9865 76.0394 55.9696C76.0772 55.9528 76.118 55.9444 76.1619 55.9444C76.2057 55.9444 76.2469 55.9528 76.2853 55.9696C76.3244 55.9865 76.3585 56.0098 76.3875 56.0395C76.4172 56.0691 76.4411 56.1039 76.4594 56.1437C76.4769 56.1828 76.4857 56.2246 76.4857 56.2692ZM78.1927 57.0321C78.3465 57.0321 78.4881 57.0581 78.6177 57.11C78.7479 57.1613 78.8602 57.2355 78.9546 57.3326C79.0491 57.4291 79.1226 57.5488 79.1752 57.6918C79.2285 57.8342 79.2551 57.9964 79.2551 58.1785C79.2551 58.2494 79.2477 58.2966 79.2329 58.3202C79.2174 58.3438 79.1887 58.3556 79.1469 58.3556H77.4419C77.4453 58.5175 77.4672 58.6585 77.5077 58.7786C77.5481 58.898 77.6038 58.9978 77.6746 59.0781C77.7454 59.1577 77.8298 59.2174 77.9276 59.2572C78.0254 59.297 78.135 59.3169 78.2564 59.3169C78.3691 59.3169 78.4662 59.3037 78.5478 59.2774C78.6301 59.2511 78.7006 59.2228 78.7593 59.1924C78.8187 59.1621 78.8679 59.1341 78.9071 59.1084C78.9469 59.0821 78.9813 59.069 79.0103 59.069C79.0474 59.069 79.076 59.0831 79.0963 59.1115L79.2228 59.2764C79.1668 59.3439 79.1 59.4026 79.0224 59.4525C78.9448 59.5024 78.8619 59.5432 78.7735 59.5749C78.6851 59.6066 78.5937 59.6306 78.4993 59.6468C78.4048 59.6629 78.3111 59.671 78.218 59.671C78.0412 59.671 77.878 59.641 77.7282 59.581C77.5792 59.5209 77.4503 59.4332 77.3417 59.3179C77.2331 59.2025 77.1484 59.0595 77.0877 58.8889C77.027 58.7189 76.9967 58.5232 76.9967 58.302C76.9967 58.1232 77.024 57.9563 77.0786 57.8011C77.1333 57.646 77.2122 57.5117 77.3154 57.3984C77.4179 57.2844 77.5434 57.195 77.6918 57.1303C77.8402 57.0648 78.0072 57.0321 78.1927 57.0321ZM78.2028 57.364C77.9856 57.364 77.8146 57.4267 77.6898 57.5522C77.565 57.6777 77.4874 57.8517 77.4571 58.0743H78.8504C78.8504 57.9698 78.8362 57.8743 78.8079 57.788C78.7789 57.7009 78.7367 57.6257 78.6814 57.5623C78.6254 57.4989 78.5573 57.45 78.477 57.4156C78.3974 57.3812 78.306 57.364 78.2028 57.364ZM80.2791 59.6356H79.8289V57.0726H80.097C80.1611 57.0726 80.2016 57.1039 80.2184 57.1667L80.2538 57.4449C80.3651 57.3215 80.4896 57.222 80.6272 57.1464C80.7648 57.0702 80.9237 57.0321 81.1038 57.0321C81.2441 57.0321 81.3676 57.0554 81.4741 57.1019C81.5814 57.1485 81.6711 57.2142 81.7433 57.2992C81.8148 57.3842 81.8691 57.4868 81.9062 57.6068C81.9433 57.7262 81.9619 57.8585 81.9619 58.0035V59.6356H81.5116V58.0035C81.5116 57.8099 81.4674 57.6595 81.379 57.5522C81.29 57.4449 81.1544 57.3913 80.9723 57.3913C80.8394 57.3913 80.7149 57.4234 80.5989 57.4874C80.4835 57.5515 80.377 57.6385 80.2791 57.7485V59.6356ZM84.5087 57.366L84.3903 57.5279C84.3768 57.5468 84.3633 57.5613 84.3499 57.5714C84.3364 57.5815 84.3168 57.5866 84.2912 57.5866C84.2662 57.5866 84.2389 57.5761 84.2092 57.5552C84.1795 57.5336 84.1421 57.5104 84.0969 57.4854C84.051 57.4598 83.9957 57.4365 83.9309 57.4156C83.8662 57.3947 83.7866 57.3842 83.6921 57.3842C83.5673 57.3842 83.4567 57.4065 83.3603 57.451C83.2645 57.4955 83.1839 57.56 83.1184 57.6443C83.0537 57.7286 83.0048 57.8308 82.9717 57.9509C82.9393 58.0703 82.9231 58.2042 82.9231 58.3526C82.9231 58.5077 82.9407 58.6457 82.9757 58.7664C83.0115 58.8872 83.0614 58.9884 83.1255 59.07C83.1896 59.1516 83.2675 59.214 83.3592 59.2572C83.451 59.3004 83.5542 59.3219 83.6689 59.3219C83.7788 59.3219 83.8692 59.3088 83.9401 59.2825C84.0109 59.2562 84.0699 59.2272 84.1171 59.1955C84.1643 59.1631 84.2031 59.1341 84.2335 59.1084C84.2638 59.0821 84.2942 59.069 84.3246 59.069C84.363 59.069 84.3917 59.0831 84.4106 59.1115L84.537 59.2764C84.4257 59.4127 84.2864 59.5125 84.1192 59.5759C83.9525 59.6393 83.7765 59.671 83.591 59.671C83.4304 59.671 83.2813 59.6414 83.1437 59.582C83.0068 59.5233 82.8877 59.438 82.7865 59.326C82.6853 59.2133 82.6054 59.0754 82.5467 58.9121C82.4887 58.7482 82.4597 58.5617 82.4597 58.3526C82.4597 58.1624 82.4863 57.9863 82.5396 57.8244C82.5929 57.6625 82.6705 57.5229 82.7724 57.4055C82.8742 57.2881 83.0004 57.1967 83.1508 57.1313C83.3006 57.0652 83.4726 57.0321 83.6668 57.0321C83.8456 57.0321 84.0041 57.0614 84.1424 57.1201C84.2807 57.1781 84.4028 57.2601 84.5087 57.366ZM86.0184 57.0321C86.1722 57.0321 86.3139 57.0581 86.4434 57.11C86.5736 57.1613 86.6859 57.2355 86.7803 57.3326C86.8748 57.4291 86.9487 57.5488 87.0019 57.6918C87.0546 57.8342 87.0809 57.9964 87.0809 58.1785C87.0809 58.2494 87.0734 58.2966 87.0586 58.3202C87.0431 58.3438 87.0144 58.3556 86.9726 58.3556H85.2676C85.271 58.5175 85.2929 58.6585 85.3334 58.7786C85.3739 58.898 85.4295 58.9978 85.5003 59.0781C85.5712 59.1577 85.6555 59.2174 85.7533 59.2572C85.8511 59.297 85.9607 59.3169 86.0822 59.3169C86.1948 59.3169 86.2923 59.3037 86.3746 59.2774C86.4562 59.2511 86.5264 59.2228 86.5851 59.1924C86.6444 59.1621 86.694 59.1341 86.7338 59.1084C86.7729 59.0821 86.807 59.069 86.836 59.069C86.8731 59.069 86.9018 59.0831 86.922 59.1115L87.0485 59.2764C86.9925 59.3439 86.9257 59.4026 86.8481 59.4525C86.7706 59.5024 86.6876 59.5432 86.5992 59.5749C86.5109 59.6066 86.4194 59.6306 86.325 59.6468C86.2306 59.6629 86.1368 59.671 86.0437 59.671C85.867 59.671 85.7041 59.641 85.555 59.581C85.4052 59.5209 85.276 59.4332 85.1674 59.3179C85.0588 59.2025 84.9742 59.0595 84.9135 58.8889C84.8527 58.7189 84.8224 58.5232 84.8224 58.302C84.8224 58.1232 84.8497 57.9563 84.9044 57.8011C84.959 57.646 85.0379 57.5117 85.1411 57.3984C85.2437 57.2844 85.3691 57.195 85.5175 57.1303C85.6659 57.0648 85.8329 57.0321 86.0184 57.0321ZM86.0285 57.364C85.8113 57.364 85.6403 57.4267 85.5155 57.5522C85.3907 57.6777 85.3131 57.8517 85.2828 58.0743H86.6761C86.6761 57.9698 86.662 57.8743 86.6336 57.788C86.6046 57.7009 86.5625 57.6257 86.5071 57.5623C86.4512 57.4989 86.3834 57.45 86.3038 57.4156C86.2235 57.3812 86.1317 57.364 86.0285 57.364ZM89.4081 59.6761C89.2058 59.6761 89.0503 59.6194 88.9417 59.5061C88.8324 59.3934 88.7778 59.2309 88.7778 59.0184V57.45H88.4691C88.4422 57.45 88.4196 57.4419 88.4013 57.4257C88.3825 57.4095 88.373 57.3846 88.373 57.3508V57.1717L88.7929 57.1181L88.8972 56.3268C88.9005 56.3012 88.9113 56.2806 88.9295 56.2651C88.9484 56.2489 88.972 56.2408 89.0004 56.2408H89.228V57.1232H89.9616V57.45H89.228V58.988C89.228 59.096 89.2543 59.1759 89.307 59.2278C89.3589 59.2805 89.4264 59.3068 89.5093 59.3068C89.5566 59.3068 89.5974 59.3004 89.6318 59.2875C89.6662 59.2747 89.6962 59.2609 89.7218 59.2461C89.7468 59.2305 89.7684 59.2167 89.7866 59.2046C89.8041 59.1918 89.8196 59.1853 89.8331 59.1853C89.8567 59.1853 89.8777 59.1995 89.8959 59.2278L90.0274 59.4434C89.9498 59.5155 89.8564 59.5725 89.7471 59.6144C89.6372 59.6555 89.5242 59.6761 89.4081 59.6761ZM90.9684 59.6356H90.5182V55.9089H90.9684V57.4166C91.0784 57.3006 91.1998 57.2075 91.3327 57.1373C91.4663 57.0672 91.6197 57.0321 91.7931 57.0321C91.9334 57.0321 92.0569 57.0554 92.1634 57.1019C92.2707 57.1485 92.3601 57.2142 92.4316 57.2992C92.5038 57.3842 92.5584 57.4868 92.5955 57.6068C92.6326 57.7262 92.6512 57.8585 92.6512 58.0035V59.6356H92.2009V58.0035C92.2009 57.8099 92.1564 57.6595 92.0673 57.5522C91.9789 57.4449 91.8437 57.3913 91.6616 57.3913C91.5287 57.3913 91.4042 57.4234 91.2882 57.4874C91.1728 57.5515 91.0663 57.6385 90.9684 57.7485V59.6356ZM94.345 57.0321C94.4988 57.0321 94.6405 57.0581 94.77 57.11C94.9002 57.1613 95.0125 57.2355 95.1069 57.3326C95.2014 57.4291 95.2753 57.5488 95.3285 57.6918C95.3812 57.8342 95.4075 57.9964 95.4075 58.1785C95.4075 58.2494 95.4001 58.2966 95.3852 58.3202C95.3697 58.3438 95.341 58.3556 95.2992 58.3556H93.5942C93.5976 58.5175 93.6195 58.6585 93.66 58.7786C93.7005 58.898 93.7561 58.9978 93.8269 59.0781C93.8978 59.1577 93.9821 59.2174 94.0799 59.2572C94.1777 59.297 94.2873 59.3169 94.4088 59.3169C94.5214 59.3169 94.6189 59.3037 94.7012 59.2774C94.7828 59.2511 94.853 59.2228 94.9117 59.1924C94.971 59.1621 95.0206 59.1341 95.0604 59.1084C95.0995 59.0821 95.1336 59.069 95.1626 59.069C95.1997 59.069 95.2284 59.0831 95.2486 59.1115L95.3751 59.2764C95.3191 59.3439 95.2523 59.4026 95.1747 59.4525C95.0972 59.5024 95.0142 59.5432 94.9258 59.5749C94.8375 59.6066 94.7461 59.6306 94.6516 59.6468C94.5572 59.6629 94.4634 59.671 94.3703 59.671C94.1936 59.671 94.0307 59.641 93.8816 59.581C93.7318 59.5209 93.6026 59.4332 93.494 59.3179C93.3854 59.2025 93.3008 59.0595 93.2401 58.8889C93.1794 58.7189 93.149 58.5232 93.149 58.302C93.149 58.1232 93.1763 57.9563 93.231 57.8011C93.2856 57.646 93.3645 57.5117 93.4677 57.3984C93.5703 57.2844 93.6957 57.195 93.8441 57.1303C93.9926 57.0648 94.1595 57.0321 94.345 57.0321ZM94.3551 57.364C94.1379 57.364 93.9669 57.4267 93.8421 57.5522C93.7173 57.6777 93.6397 57.8517 93.6094 58.0743H95.0027C95.0027 57.9698 94.9886 57.8743 94.9602 57.788C94.9312 57.7009 94.8891 57.6257 94.8337 57.5623C94.7778 57.4989 94.71 57.45 94.6304 57.4156C94.5501 57.3812 94.4583 57.364 94.3551 57.364ZM97.4079 60.5038H96.9576V57.0726H97.2258C97.2899 57.0726 97.3303 57.1039 97.3472 57.1667L97.3857 57.4702C97.4949 57.3367 97.6201 57.2294 97.7611 57.1485C97.902 57.0675 98.0643 57.027 98.2478 57.027C98.3948 57.027 98.528 57.0554 98.6474 57.112C98.7675 57.1687 98.8697 57.2523 98.954 57.363C99.0384 57.4729 99.1031 57.6099 99.1483 57.7738C99.1942 57.937 99.2171 58.1249 99.2171 58.3374C99.2171 58.5263 99.1918 58.7023 99.1412 58.8656C99.0906 59.0282 99.0181 59.1688 98.9237 59.2875C98.8292 59.4063 98.7132 59.5 98.5756 59.5688C98.438 59.637 98.2832 59.671 98.1112 59.671C97.9526 59.671 97.8174 59.6447 97.7054 59.5921C97.5934 59.5402 97.4943 59.466 97.4079 59.3695V60.5038ZM98.099 57.3913C97.952 57.3913 97.8235 57.425 97.7135 57.4925C97.6029 57.56 97.501 57.6554 97.4079 57.7789V59.0184C97.4909 59.1297 97.5816 59.2079 97.6801 59.2531C97.7786 59.299 97.8886 59.3219 98.01 59.3219C98.2481 59.3219 98.4312 59.2366 98.5594 59.0659C98.6876 58.8959 98.7517 58.6531 98.7517 58.3374C98.7517 58.1708 98.7368 58.0278 98.7071 57.9084C98.6775 57.7883 98.635 57.6898 98.5797 57.6129C98.5237 57.536 98.4552 57.48 98.3742 57.4449C98.2933 57.4092 98.2016 57.3913 98.099 57.3913ZM100.201 59.6356H99.7504V57.0726H100.008C100.058 57.0726 100.091 57.082 100.11 57.1009C100.128 57.1191 100.141 57.1512 100.148 57.197L100.178 57.5967C100.266 57.418 100.374 57.2783 100.503 57.1778C100.632 57.0773 100.783 57.027 100.958 57.027C101.028 57.027 101.092 57.0351 101.15 57.0513C101.207 57.0675 101.26 57.0898 101.309 57.1181L101.251 57.4551C101.239 57.4969 101.213 57.5178 101.172 57.5178C101.148 57.5178 101.112 57.51 101.064 57.4945C101.015 57.4783 100.946 57.4702 100.858 57.4702C100.702 57.4702 100.571 57.5158 100.465 57.6068C100.36 57.6979 100.271 57.8301 100.201 58.0035V59.6356ZM102.826 57.0321C103.013 57.0321 103.182 57.0635 103.333 57.1262C103.484 57.1883 103.613 57.2766 103.718 57.3913C103.823 57.506 103.904 57.645 103.961 57.8082C104.017 57.9708 104.046 58.1522 104.046 58.3526C104.046 58.555 104.017 58.7371 103.961 58.899C103.904 59.0609 103.823 59.1992 103.718 59.3138C103.613 59.4285 103.484 59.5169 103.333 59.579C103.182 59.6403 103.013 59.671 102.826 59.671C102.639 59.671 102.47 59.6403 102.319 59.579C102.168 59.5169 102.04 59.4285 101.933 59.3138C101.827 59.1992 101.745 59.0609 101.688 58.899C101.631 58.7371 101.602 58.555 101.602 58.3526C101.602 58.1522 101.631 57.9708 101.688 57.8082C101.745 57.645 101.827 57.506 101.933 57.3913C102.04 57.2766 102.168 57.1883 102.319 57.1262C102.47 57.0635 102.639 57.0321 102.826 57.0321ZM102.826 59.3189C103.079 59.3189 103.268 59.2342 103.393 59.0649C103.518 58.8956 103.58 58.6592 103.58 58.3556C103.58 58.05 103.518 57.8122 103.393 57.6423C103.268 57.4716 103.079 57.3863 102.826 57.3863C102.698 57.3863 102.587 57.4082 102.493 57.452C102.398 57.4959 102.319 57.5593 102.256 57.6423C102.192 57.7246 102.145 57.8261 102.114 57.9468C102.083 58.0676 102.068 58.2038 102.068 58.3556C102.068 58.5074 102.083 58.643 102.114 58.7624C102.145 58.8825 102.192 58.9833 102.256 59.0649C102.319 59.1472 102.398 59.21 102.493 59.2531C102.587 59.297 102.698 59.3189 102.826 59.3189ZM106.674 59.6356H106.405C106.341 59.6356 106.301 59.6043 106.284 59.5415L106.243 59.2309C106.134 59.3644 106.009 59.471 105.868 59.5506C105.727 59.6309 105.566 59.671 105.383 59.671C105.237 59.671 105.104 59.6427 104.984 59.586C104.864 59.5294 104.762 59.4464 104.678 59.3371C104.594 59.2272 104.529 59.0906 104.483 58.9273C104.438 58.7634 104.415 58.5752 104.415 58.3627C104.415 58.1738 104.44 57.9981 104.491 57.8355C104.542 57.6729 104.614 57.5316 104.71 57.4115C104.805 57.2921 104.921 57.1984 105.058 57.1303C105.194 57.0614 105.349 57.027 105.523 57.027C105.68 57.027 105.813 57.0537 105.925 57.107C106.036 57.1603 106.136 57.2348 106.223 57.3306V55.9089H106.674V59.6356ZM105.533 59.3068C105.68 59.3068 105.808 59.273 105.919 59.2056C106.029 59.1381 106.131 59.0427 106.223 58.9192V57.6797C106.141 57.5684 106.05 57.4905 105.951 57.446C105.853 57.4014 105.744 57.3792 105.624 57.3792C105.385 57.3792 105.201 57.4642 105.073 57.6342C104.945 57.8048 104.881 58.0477 104.881 58.3627C104.881 58.53 104.895 58.673 104.923 58.7917C104.952 58.9105 104.994 59.0083 105.049 59.0852C105.105 59.1621 105.174 59.2181 105.255 59.2531C105.336 59.2889 105.429 59.3068 105.533 59.3068ZM107.369 57.0726H107.819V58.7067C107.819 58.901 107.864 59.0511 107.954 59.157C108.043 59.2636 108.177 59.3169 108.358 59.3169C108.49 59.3169 108.614 59.2855 108.73 59.2228C108.846 59.1607 108.954 59.074 109.051 58.9627V57.0726H109.502V59.6356H109.234C109.169 59.6356 109.129 59.6043 109.112 59.5415L109.077 59.2663C108.965 59.3891 108.841 59.4882 108.702 59.5638C108.564 59.6387 108.406 59.6761 108.227 59.6761C108.086 59.6761 107.963 59.6528 107.856 59.6063C107.749 59.5597 107.659 59.4943 107.586 59.41C107.514 59.3257 107.46 59.2238 107.423 59.1044C107.387 58.9843 107.369 58.8518 107.369 58.7067V57.0726ZM112.109 57.366L111.991 57.5279C111.977 57.5468 111.964 57.5613 111.95 57.5714C111.937 57.5815 111.917 57.5866 111.892 57.5866C111.867 57.5866 111.839 57.5761 111.81 57.5552C111.78 57.5336 111.743 57.5104 111.697 57.4854C111.652 57.4598 111.596 57.4365 111.531 57.4156C111.467 57.3947 111.387 57.3842 111.293 57.3842C111.168 57.3842 111.057 57.4065 110.961 57.451C110.865 57.4955 110.784 57.56 110.719 57.6443C110.654 57.7286 110.605 57.8308 110.572 57.9509C110.54 58.0703 110.524 58.2042 110.524 58.3526C110.524 58.5077 110.541 58.6457 110.576 58.7664C110.612 58.8872 110.662 58.9884 110.726 59.07C110.79 59.1516 110.868 59.214 110.96 59.2572C111.052 59.3004 111.155 59.3219 111.269 59.3219C111.379 59.3219 111.47 59.3088 111.541 59.2825C111.611 59.2562 111.67 59.2272 111.718 59.1955C111.765 59.1631 111.804 59.1341 111.834 59.1084C111.864 59.0821 111.895 59.069 111.925 59.069C111.964 59.069 111.992 59.0831 112.011 59.1115L112.138 59.2764C112.026 59.4127 111.887 59.5125 111.72 59.5759C111.553 59.6393 111.377 59.671 111.191 59.671C111.031 59.671 110.882 59.6414 110.744 59.582C110.607 59.5233 110.488 59.438 110.387 59.326C110.286 59.2133 110.206 59.0754 110.147 58.9121C110.089 58.7482 110.06 58.5617 110.06 58.3526C110.06 58.1624 110.087 57.9863 110.14 57.8244C110.193 57.6625 110.271 57.5229 110.373 57.4055C110.475 57.2881 110.601 57.1967 110.751 57.1313C110.901 57.0652 111.073 57.0321 111.267 57.0321C111.446 57.0321 111.605 57.0614 111.743 57.1201C111.881 57.1781 112.003 57.2601 112.109 57.366ZM113.381 59.6761C113.179 59.6761 113.023 59.6194 112.915 59.5061C112.806 59.3934 112.752 59.2309 112.752 59.0184V57.45H112.443C112.416 57.45 112.393 57.4419 112.374 57.4257C112.356 57.4095 112.347 57.3846 112.347 57.3508V57.1717L112.767 57.1181L112.87 56.3268C112.874 56.3012 112.885 56.2806 112.904 56.2651C112.922 56.2489 112.945 56.2408 112.974 56.2408H113.202V57.1232H113.936V57.45H113.202V58.988C113.202 59.096 113.228 59.1759 113.28 59.2278C113.333 59.2805 113.4 59.3068 113.482 59.3068C113.53 59.3068 113.571 59.3004 113.606 59.2875C113.64 59.2747 113.67 59.2609 113.695 59.2461C113.72 59.2305 113.742 59.2167 113.76 59.2046C113.777 59.1918 113.793 59.1853 113.806 59.1853C113.83 59.1853 113.851 59.1995 113.87 59.2278L114.001 59.4434C113.924 59.5155 113.83 59.5725 113.72 59.6144C113.611 59.6555 113.498 59.6761 113.381 59.6761Z" fill="white"/>
</g>
</g>
</g>
</g>
<g clip-path="url(#clip9_48_461)">
<g clip-path="url(#clip10_48_461)">
<path d="M13.2111 7.90871C21.9773 8.90011 25.7129 14.8962 26.7615 18.0312C27.4415 20.0635 27.697 21.2685 27.697 23.9256C27.697 24.4448 27.7249 25.2449 27.0271 25.3339C26.5378 25.3968 26.2588 25.0104 26.2181 24.5827C26.0345 22.6596 25.4816 20.408 23.671 18.3229C22.2392 16.6744 18.9224 13.3646 13.0884 13.8609C11.3922 14.0058 9.87779 12.6738 9.82885 10.9604C9.77674 9.13906 11.4081 7.70471 13.2111 7.90871Z" fill="white"/>
<path d="M40.7065 52.6902C31.9402 51.6981 28.2053 45.7027 27.1561 42.5671C26.4761 40.5347 26.2206 39.3298 26.2206 36.6727C26.2206 36.1535 26.1927 35.3534 26.8904 35.2644C27.3798 35.2015 27.6588 35.5879 27.6995 36.0156C27.8831 37.9386 28.436 40.1903 30.2466 42.2754C31.6784 43.9239 34.9952 47.2337 40.8292 46.7373C42.5254 46.5924 44.0398 47.9245 44.0887 49.6378C44.1408 51.4598 42.5095 52.8942 40.7065 52.6902Z" fill="white"/>
<path d="M4.56795 44.0479C5.55935 35.2816 11.5554 31.5461 14.6904 30.4975C16.7228 29.8175 17.9277 29.562 20.5854 29.562C21.1047 29.562 21.9048 29.5334 21.9937 30.2318C22.056 30.7212 21.6703 31.0002 21.2426 31.0408C19.3195 31.2239 17.0679 31.7774 14.9834 33.588C13.3349 35.0204 10.0251 38.3372 10.5214 44.1706C10.6663 45.8667 9.3343 47.3812 7.62096 47.4301C5.7983 47.4816 4.36395 45.8509 4.56795 44.0479Z" fill="white"/>
<path d="M49.3494 16.5517C48.358 25.318 42.3619 29.0536 39.227 30.1022C37.1946 30.7822 35.9896 31.0376 33.3319 31.0376C32.8127 31.0376 32.0126 31.0662 31.9236 30.3678C31.8613 29.8785 32.2471 29.5995 32.6748 29.5588C34.5979 29.3758 36.8495 28.8222 38.934 27.0117C40.5825 25.5792 43.8923 22.2625 43.3959 16.4291C43.251 14.7329 44.5831 13.2185 46.2964 13.1695C48.1191 13.118 49.5534 14.7488 49.3494 16.5517Z" fill="white"/>
<path d="M3.8576 17.7827C11.9452 14.2581 18.1776 17.5832 20.6542 19.7738C22.2596 21.1935 23.0825 22.1099 24.4114 24.4111C24.6713 24.8611 25.0959 25.5392 24.5353 25.9656C24.1432 26.2643 23.7079 26.0698 23.4594 25.7196C22.339 24.1455 20.7337 22.4728 18.1236 21.5729C16.0588 20.8611 11.5314 19.653 6.72822 23.0003C5.33136 23.9732 3.35428 23.5767 2.45502 22.1175C1.49858 20.565 2.19446 18.5072 3.8576 17.7827Z" fill="white"/>
<path d="M50.0601 42.8162C41.9726 46.3408 35.7401 43.0158 33.2635 40.8252C31.6582 39.4054 30.8352 38.489 29.5063 36.1878C29.2464 35.7379 28.8219 35.0598 29.3817 34.6334C29.7745 34.3347 30.2092 34.5291 30.4583 34.8793C31.5787 36.4535 33.184 38.1261 35.7941 39.026C37.8589 39.7378 42.3863 40.9459 47.1895 37.5993C48.5863 36.6257 50.5634 37.0223 51.4627 38.4814C52.4191 40.034 51.7232 42.0918 50.0601 42.8162Z" fill="white"/>
<path d="M14.4415 53.4014C10.9169 45.3138 14.2419 39.0814 16.4325 36.6048C17.8529 35.0001 18.7687 34.1765 21.0705 32.8476C21.5204 32.5877 22.1985 32.1638 22.6243 32.7237C22.923 33.1158 22.7286 33.5511 22.3784 33.7996C20.8042 34.9206 19.1316 36.5253 18.2317 39.1354C17.5199 41.1995 16.3118 45.7269 19.659 50.5308C20.632 51.9276 20.2361 53.9054 18.7763 54.8046C17.2244 55.7598 15.1666 55.0645 14.4415 53.4014Z" fill="white"/>
<path d="M39.4756 7.19823C43.0002 15.2858 39.6752 21.5183 37.4846 23.9949C36.0648 25.6002 35.149 26.4232 32.8472 27.7527C32.3973 28.012 31.7192 28.4365 31.2927 27.8766C30.994 27.4838 31.1891 27.0485 31.5393 26.8C33.1135 25.6796 34.7862 24.0749 35.686 21.4643C36.3978 19.3995 37.6059 14.8727 34.2587 10.0682C33.2851 8.67135 33.6816 6.69427 35.1408 5.79502C36.6933 4.83984 38.7511 5.53509 39.4756 7.19823Z" fill="white"/>
<path d="M0.693263 31.0103C5.93498 23.9141 12.9949 23.6771 16.2354 24.3361C18.3358 24.7632 19.5064 25.1445 21.8082 26.4733C22.2582 26.7326 22.9649 27.1082 22.6929 27.7577C22.5028 28.2127 22.0287 28.2617 21.6379 28.0831C19.8807 27.2804 17.6539 26.6341 14.944 27.1597C12.7998 27.5753 8.27495 28.793 5.78881 34.0938C5.0656 35.6349 3.15524 36.2799 1.64653 35.4658C0.0418611 34.5996 -0.383933 32.4694 0.693263 31.0103Z" fill="white"/>
<path d="M53.2237 29.5892C47.982 36.6848 40.9214 36.9218 37.6822 36.2628C35.5818 35.8357 34.4112 35.4544 32.1094 34.1255C31.6594 33.8663 30.9527 33.4907 31.2241 32.8412C31.4148 32.3861 31.8889 32.3372 32.2791 32.5158C34.0369 33.3191 36.2631 33.9648 38.9736 33.4392C41.1172 33.0236 45.642 31.8066 48.1288 26.5057C48.852 24.964 50.7624 24.3189 52.2704 25.133C53.8751 25.9992 54.3015 28.1295 53.2237 29.5892Z" fill="white"/>
<path d="M27.6696 56.5649C20.5735 51.3232 20.3364 44.2633 20.9955 41.0234C21.4232 38.9231 21.8038 37.7524 23.1333 35.45C23.3932 35 23.7688 34.294 24.4171 34.5653C24.8721 34.756 24.921 35.2295 24.7424 35.6203C23.9398 37.3775 23.2935 39.6043 23.819 42.3142C24.2347 44.4584 25.4523 48.9826 30.7531 51.4694C32.2943 52.1926 32.9393 54.1029 32.1252 55.6117C31.2584 57.2163 29.1288 57.6428 27.6696 56.5649Z" fill="white"/>
<path d="M26.248 4.03526C33.3442 9.27635 33.5806 16.3363 32.9216 19.5768C32.4945 21.6771 32.1138 22.8477 30.785 25.1502C30.525 25.5995 30.1494 26.3062 29.5006 26.0349C29.0456 25.8442 28.9973 25.3701 29.1758 24.9793C29.9785 23.2221 30.6248 20.9959 30.0992 18.2854C29.683 16.1418 28.466 11.6176 23.1651 9.13018C21.6234 8.4076 20.979 6.49661 21.7931 4.98853C22.6586 3.38322 24.7882 2.95743 26.248 4.03526Z" fill="white"/>
</g>
</g>
</g>
</g>
</g>
<defs>
<clipPath id="clip0_48_461">
<rect width="150" height="60.6" fill="white"/>
</clipPath>
<clipPath id="clip1_48_461">
<rect width="149.803" height="60.7096" fill="white" transform="translate(0.0983887 -0.0548096)"/>
</clipPath>
<clipPath id="clip2_48_461">
<rect width="149.803" height="60.7096" fill="white" transform="translate(0.0983887 -0.0548096)"/>
</clipPath>
<clipPath id="clip3_48_461">
<rect width="86.9261" height="60.4076" fill="white" transform="translate(62.9756 0.0961914)"/>
</clipPath>
<clipPath id="clip4_48_461">
<rect width="86.9261" height="60.4076" fill="white" transform="translate(62.9756 0.0961914)"/>
</clipPath>
<clipPath id="clip5_48_461">
<rect width="86.9261" height="51.9686" fill="white" transform="translate(62.9756 0.0961914)"/>
</clipPath>
<clipPath id="clip6_48_461">
<rect width="86.9261" height="51.9686" fill="white" transform="translate(62.9756 0.0961914)"/>
</clipPath>
<clipPath id="clip7_48_461">
<rect width="51.0343" height="4.59486" fill="white" transform="translate(62.9756 55.9089)"/>
</clipPath>
<clipPath id="clip8_48_461">
<rect width="51.0343" height="4.59486" fill="white" transform="translate(62.9756 55.9089)"/>
</clipPath>
<clipPath id="clip9_48_461">
<rect width="53.7204" height="53.7201" fill="white" transform="translate(0.0983887 3.43994)"/>
</clipPath>
<clipPath id="clip10_48_461">
<rect width="53.7204" height="53.7201" fill="white" transform="translate(0.0983887 3.43994)"/>
</clipPath>
</defs>
</svg>
